<svg viewBox="0 0 205 136" fill="none" xmlns="http://www.w3.org/2000/svg">
<path d="M70.3595 131.863C56.8782 127.71 43.7537 122.818 31.075 117.222C23.9668 114.088 16.8834 110.652 11.4787 105.743C6.07412 100.835 2.49346 94.1928 3.64451 87.652C4.74244 81.3983 10.3737 75.8229 17.6413 73.7355C20.1772 73.0135 22.9007 72.6801 25.263 71.6364C27.6253 70.5926 29.6335 68.537 29.1979 66.3771C28.7764 64.2751 26.3397 62.9182 24.1297 61.7933C19.2067 59.2825 14.2342 56.5746 10.8554 52.7244C7.47663 48.8741 5.97495 43.554 8.54976 39.2949C10.5685 35.9578 14.7477 33.7863 19.1076 32.7135C23.4674 31.6408 28.0751 31.5219 32.6156 31.2639C43.053 30.684 53.7524 29.2344 62.6386 24.7086C70.2001 20.8613 75.9306 15.0482 82.851 10.4645C93.8303 3.18438 108.705 -0.9065 122.383 1.97828C136.061 4.86307 147.374 15.8803 145.783 27.3731C144.317 37.9815 133.288 46.0647 129.616 56.3079C126.194 65.8552 130.016 76.8928 139.051 83.535C148.149 90.2324 161.413 92.4271 169.778 99.742C173.04 102.595 175.47 106.639 174.028 110.362C171.804 116.059 161.633 118.582 161.537 124.569C161.516 125.957 162.1 127.361 161.739 128.717C160.967 131.617 156.656 132.637 153.079 133.066C132.743 135.568 121.158 135.934 100.595 135.548" fill="#FFECD2"/>
<path fill-rule="evenodd" clip-rule="evenodd" d="M70.6887 131.161C68.7656 130.7 64.4695 129.369 60.138 127.896C55.8065 126.424 51.4502 124.82 49.2119 124.095C48.0998 123.864 49.4775 124.516 50.7879 125.104C52.0984 125.693 53.3344 126.224 51.9036 125.786C51.514 125.751 53.5823 126.499 55.6649 127.221C57.7474 127.943 59.8405 128.642 59.4474 128.615C58.2397 128.43 60.8924 129.387 60.7897 129.523C57.8076 128.563 54.1455 127.279 51.1492 126.209C48.1529 125.139 45.8083 124.307 45.4081 124.33C37.6624 121.376 30.0407 118.091 26.0138 116.438C23.8887 115.412 21.7885 114.351 19.7768 113.22C17.77 112.094 15.8458 110.873 14.0145 109.561C10.2934 106.95 7.22111 103.776 4.96545 100.214C3.83375 98.3847 2.98658 96.4464 2.44376 94.4445C2.28793 93.943 2.21355 93.4211 2.08959 92.9079C1.96563 92.3947 1.94793 91.8613 1.89126 91.3365C1.81654 90.2731 1.84734 89.2066 1.98334 88.1473C2.12239 87.0671 2.38202 85.9995 2.75897 84.9581L3.07773 84.1753L3.24065 83.7868L3.4319 83.4041L3.82148 82.6387L4.27128 81.8907L4.49795 81.5167C4.57941 81.3949 4.66795 81.276 4.75295 81.1542C4.92649 80.9136 5.10712 80.673 5.27004 80.4323C5.43296 80.1917 5.65254 79.9655 5.84379 79.7307C6.03505 79.4958 6.22984 79.2639 6.44942 79.0436L7.08693 78.3738L7.79527 77.7331L8.14944 77.4113L8.50361 77.1213L9.25799 76.5154C10.3054 75.707 11.4384 74.9764 12.6439 74.3322C13.8381 73.6959 15.1063 73.1579 16.4299 72.726C17.6269 72.3406 18.8482 72.0077 20.0885 71.7287C21.0739 71.5023 22.0424 71.2293 22.9892 70.9111C23.3433 70.8096 23.6479 70.6936 23.9667 70.5748C24.1225 70.5139 24.2748 70.4472 24.4271 70.3834C24.5794 70.3196 24.7069 70.2587 24.8415 70.1834C25.3892 69.8986 25.8872 69.5543 26.3219 69.1599C26.7283 68.7891 27.0509 68.362 27.2746 67.8987C27.4609 67.4929 27.5181 67.0549 27.4411 66.626C27.3313 66.1706 27.0882 65.7438 26.7327 65.3822C26.3018 64.9329 25.7991 64.5331 25.2381 64.1935C24.6431 63.8137 23.9631 63.4541 23.2477 63.0859C22.5323 62.7177 21.7673 62.3292 21.02 61.9262C18.0449 60.3548 14.9991 58.6152 12.3003 56.3973C10.918 55.2693 9.68899 54.0221 8.63465 52.6775C7.55817 51.2807 6.7238 49.7683 6.15546 48.1836C5.56612 46.552 5.32646 44.8491 5.44712 43.1505L5.51087 42.501L5.63483 41.8545L5.69858 41.5298L5.79067 41.208L5.98546 40.5672C6.29327 39.7143 6.71492 38.8918 7.24276 38.1144C8.31761 36.5856 9.7641 35.2535 11.4928 34.2004C13.1697 33.1667 15.0244 32.3421 16.9966 31.7534C20.9208 30.5676 24.9902 30.2458 28.9038 30.0341C30.8694 29.9298 32.7997 29.8457 34.7157 29.7181C36.6318 29.5906 38.5514 29.4282 40.4604 29.2339C43.6635 28.887 46.8338 28.3601 49.9486 27.6567C52.5287 27.0716 55.0383 26.2952 57.4463 25.3373C59.9191 24.4349 62.2705 23.3243 64.4624 22.0234C66.737 20.6436 68.9106 19.1557 70.9721 17.5672C75.2221 14.378 79.3517 10.8322 84.1932 7.98223C88.8525 5.2108 94.0272 3.07267 99.5182 1.6502C104.433 0.361048 109.594 -0.180384 114.747 0.0527004L116.518 0.139679C116.816 0.157074 117.113 0.162873 117.411 0.188967L118.303 0.284643C118.898 0.351326 119.497 0.409312 120.095 0.484693L121.866 0.789117C124.288 1.21701 126.638 1.88287 128.865 2.77222C133.361 4.55713 137.337 7.11087 140.524 10.2611C142.108 11.7981 143.474 13.4768 144.597 15.2652C145.677 17.0189 146.493 18.8735 147.027 20.7883C147.522 22.6363 147.729 24.5282 147.643 26.4187C147.508 28.1811 147.166 29.9287 146.623 31.6374C145.602 34.2891 144.234 36.8427 142.543 39.2539C140.896 41.6834 139.079 44.0203 137.351 46.3716C135.605 48.6686 134.057 51.0625 132.718 53.5357C132.084 54.7474 131.557 55.9943 131.138 57.2671L130.848 58.2064C130.742 58.5196 130.703 58.8443 130.625 59.1603L130.43 60.1287L130.313 61.0883C129.757 66.0653 130.968 71.0679 133.802 75.4948C135.087 77.5075 136.712 79.362 138.629 81.0035C140.41 82.4938 142.39 83.8146 144.533 84.9407C146.944 86.2809 149.449 87.5046 152.034 88.6054C154.716 89.7651 157.489 90.9248 160.11 92.1541C162.627 93.3027 165.02 94.6248 167.264 96.1058C168.235 96.7687 169.158 97.4783 170.026 98.231C170.796 98.8681 171.5 99.5566 172.13 100.289C172.69 100.884 173.202 101.508 173.664 102.157C174.097 102.775 174.474 103.42 174.79 104.085C175.416 105.356 175.736 106.715 175.732 108.086C175.713 109.429 175.309 110.749 174.553 111.942C173.798 113.094 172.837 114.148 171.702 115.067C170.377 116.149 169.024 117.047 167.763 117.937C166.535 118.762 165.396 119.672 164.36 120.657C163.39 121.568 162.737 122.675 162.468 123.864L162.426 124.084L162.408 124.304C162.389 124.453 162.381 124.604 162.383 124.754C162.383 125.044 162.415 125.371 162.454 125.699C162.578 126.411 162.643 127.13 162.649 127.85C162.632 128.676 162.351 129.483 161.834 130.193C161.299 130.899 160.572 131.494 159.709 131.932C158.002 132.816 156.044 133.248 154.007 133.547C152.973 133.689 151.964 133.791 150.898 133.918C149.832 134.046 148.741 134.168 147.614 134.289C146.488 134.411 145.323 134.536 144.119 134.655C142.915 134.774 141.675 134.898 140.389 135.014C137.977 135.142 134.103 135.437 130.274 135.611C126.446 135.785 122.674 135.867 120.489 135.811C115.976 135.849 113.023 135.811 110.182 135.791C107.342 135.771 104.625 135.698 100.591 135.553C104.013 135.284 109.92 135.336 118.817 135.284C119.43 135.165 118.293 135.159 117.156 135.136C116.019 135.113 114.882 135.087 115.498 134.976C117.131 135.043 120.138 135.04 123.29 134.956C126.442 134.872 129.761 134.721 132.01 134.626C135.633 134.356 139.476 134.002 143.488 133.57C145.496 133.359 147.544 133.118 149.63 132.872L152.782 132.486C153.82 132.366 154.847 132.188 155.856 131.955C156.848 131.735 157.801 131.408 158.689 130.984C158.891 130.865 159.114 130.767 159.298 130.633L159.585 130.445L159.844 130.239C160.01 130.099 160.166 129.951 160.311 129.795L160.496 129.549C160.565 129.471 160.621 129.387 160.662 129.297L160.807 129.036C160.846 128.946 160.871 128.85 160.906 128.76C160.98 128.572 161.027 128.378 161.048 128.181C161.088 127.763 161.078 127.344 161.02 126.928C160.913 126.058 160.666 125.084 160.786 124.046C160.898 123.027 161.272 122.039 161.884 121.147C162.486 120.285 163.215 119.488 164.055 118.772C165.681 117.352 167.498 116.163 169.144 114.884C170.09 114.154 170.954 113.355 171.726 112.498C172.466 111.683 173.003 110.757 173.309 109.773C173.6 108.802 173.636 107.791 173.416 106.807C173.19 105.799 172.788 104.822 172.222 103.908C171.649 102.98 170.957 102.106 170.157 101.298C169.756 100.894 169.329 100.507 168.879 100.139L167.483 99.0254C165.509 97.6013 163.375 96.3335 161.108 95.2389C156.532 92.9746 151.475 91.1799 146.492 88.8605C143.93 87.6935 141.501 86.3409 139.235 84.8189C136.883 83.215 134.824 81.3445 133.118 79.2639C129.373 74.7365 127.292 69.4248 127.122 63.9586C127.09 63.6107 127.122 63.2628 127.122 62.912L127.154 61.8624C127.214 61.1637 127.303 60.465 127.388 59.7634C127.537 59.0704 127.653 58.3688 127.838 57.6788L128.146 56.6466C128.242 56.3016 128.36 55.9609 128.5 55.6261C129.537 52.955 130.911 50.3792 132.598 47.9401C135.842 43.0896 139.681 38.6305 142.047 33.8641C142.33 33.2668 142.649 32.6812 142.861 32.0752C143.117 31.4829 143.335 30.88 143.513 30.269C143.712 29.6712 143.867 29.0641 143.977 28.4511C144.08 27.8423 144.225 27.2392 144.253 26.6362C144.454 24.2566 144.093 21.8677 143.191 19.5996C142.574 17.9214 141.714 16.3096 140.63 14.7984C139.482 13.2139 138.121 11.7396 136.571 10.4031C133.381 7.62074 129.466 5.46244 125.118 4.0885C124.038 3.74792 122.934 3.46512 121.81 3.24191C120.681 3.02167 119.539 2.84845 118.388 2.72294C116.134 2.45995 113.855 2.37644 111.581 2.4736C107.305 2.66999 103.09 3.3943 99.079 4.62196L97.4923 5.08585C96.9575 5.24531 96.4298 5.44246 95.9127 5.61932C94.8502 5.96433 93.8337 6.40212 92.7925 6.80802C90.7175 7.68235 88.7178 8.67136 86.807 9.76819C82.9111 11.9368 79.4367 14.7173 75.8278 17.5412C72.2188 20.3651 68.4044 23.2875 63.917 25.6272C59.4297 27.967 54.3863 29.5355 49.2473 30.5386C47.4127 30.9252 45.5427 31.2547 43.6373 31.5273C41.7354 31.8027 39.8051 32.0202 37.8572 32.197C35.9093 32.3739 33.9401 32.5072 31.9674 32.6203C29.9946 32.7334 28.0396 32.8233 26.1094 32.9914C24.1986 33.1383 22.3043 33.4039 20.4427 33.7858C18.6272 34.1573 16.8817 34.7289 15.2541 35.4848C13.6668 36.2285 12.2666 37.2124 11.128 38.3841C10.5806 38.9551 10.1281 39.5829 9.78216 40.2512C9.59739 40.587 9.43772 40.9317 9.30403 41.2833C9.24382 41.4602 9.19778 41.6371 9.14111 41.8139C9.11632 41.9009 9.08445 41.9908 9.0632 42.0778L9.01007 42.3503C8.72615 43.8263 8.80077 45.3338 9.22966 46.7862C9.66643 48.2686 10.3834 49.686 11.3547 50.9872C11.5849 51.3207 11.8576 51.628 12.1126 51.944C12.3676 52.26 12.6651 52.5673 12.9697 52.8602C13.5659 53.4614 14.2008 54.0363 14.8716 54.5823C16.2391 55.6759 17.706 56.6829 19.2597 57.5947C20.8075 58.5254 22.4296 59.3836 24.0658 60.2214C25.7021 61.0593 27.5154 61.8827 29.0561 63.2889C29.4567 63.6536 29.8038 64.0555 30.0903 64.4863C30.3998 64.9391 30.6232 65.4279 30.7526 65.9359C30.8218 66.1928 30.868 66.4534 30.8907 66.7158C30.9067 66.9778 30.8996 67.2404 30.8694 67.5015C30.8112 68.0077 30.6657 68.5045 30.4373 68.9773C30.0084 69.8576 29.369 70.659 28.5567 71.3344C27.7934 71.9771 26.9128 72.519 25.9465 72.9406C24.2972 73.5832 22.5684 74.0789 20.7898 74.4192C19.9575 74.6019 19.15 74.7816 18.3849 74.9991C14.4639 76.0998 11.0709 78.1911 8.69486 80.9716C6.69951 83.2351 5.48254 85.8953 5.17087 88.675C4.90549 91.5302 5.45098 94.3971 6.76464 97.051C8.09028 99.7717 9.97979 102.285 12.3499 104.479C14.7661 106.69 17.4838 108.666 20.4498 110.37C23.4319 112.08 26.5274 113.652 29.7219 115.082C32.9095 116.531 36.097 117.92 39.2385 119.251C46.421 122.15 52.2577 124.203 58.8134 126.389C61.7672 127.386 62.0541 127.58 62.1922 127.746C62.3303 127.911 62.3197 128.036 64.7139 128.83C67.0337 129.694 68.8046 130.413 70.6887 131.161Z" fill="#FFECD2"/>
<path d="M161.724 128.39C162.079 127.033 161.501 125.632 161.523 124.244C161.608 118.262 171.793 115.737 174.014 110.037C175.47 106.314 173.04 102.27 169.764 99.417C168.558 98.3717 167.249 97.4088 165.851 96.538C164.682 99.8104 163.511 103.083 162.337 106.355C162.047 107.173 161.714 108.039 160.92 108.579C160.127 109.118 158.976 109.222 157.921 109.292L144.572 110.162L146.835 103.462C128.577 104.917 110.2 105.088 91.907 103.972C92.1431 98.2158 92.3792 92.4607 92.6153 86.7066C81.0033 87.7948 69.3522 88.5602 57.6623 89.0028C57.072 92.163 56.4817 95.3223 55.8914 98.4806C51.1655 98.3979 46.4547 98.9463 41.9442 100.104L44.1613 91.7542C44.5155 90.3887 43.2972 88.1881 42.0753 89.1681C42.9465 84.6916 43.8154 80.2151 44.682 75.7386L33.0723 76.3185C32.5303 79.793 31.5924 83.2185 30.2708 86.55L23.4105 86.7994C24.7091 81.3429 25.8685 75.8662 26.8885 70.3691C26.3863 70.7326 25.8349 71.0477 25.2451 71.3085C22.8828 72.3522 20.1592 72.6857 17.6234 73.4105C10.3381 75.4864 4.72452 81.0646 3.62659 87.327C2.47554 93.8707 6.05266 100.51 11.4608 105.419C16.869 110.327 23.9489 113.763 31.057 116.9C43.7365 122.495 56.8609 127.386 70.3416 131.541L100.563 135.232C121.126 135.617 132.711 135.249 153.047 132.747C156.639 132.321 160.952 131.283 161.724 128.39Z" fill="#F7D1A4"/>
<path d="M162.635 128.554C162.729 127.989 162.736 127.416 162.656 126.849C162.582 126.203 162.412 125.504 162.334 124.794C162.248 124.054 162.344 123.308 162.617 122.599C162.765 122.216 162.954 121.846 163.184 121.491C163.429 121.123 163.706 120.769 164.013 120.433C165.259 119.053 166.945 117.87 168.383 116.786C169.608 115.918 170.746 114.972 171.787 113.956C172.343 113.17 171.252 114.061 170.164 114.791C169.077 115.522 168.039 116.174 169.028 115.33C169.116 115.197 168.776 115.429 168.213 115.835C167.65 116.241 166.857 116.818 166.088 117.418C165.319 118.018 164.561 118.644 164.055 119.108C163.549 119.572 163.258 119.862 163.318 119.714C163.584 119.285 163.255 119.488 162.869 119.827C162.483 120.166 162.05 120.639 161.976 120.59C162.863 119.392 163.954 118.305 165.217 117.36C166.463 116.377 167.753 115.47 168.829 114.614C169.746 113.916 170.576 113.146 171.308 112.315C171.854 111.671 172.081 111.202 172.073 111.063C172.498 110.444 172.805 109.777 172.984 109.082C173.145 108.397 173.176 107.694 173.076 107.001C172.859 105.627 172.296 104.305 171.422 103.119C170.651 102.047 169.717 101.06 168.642 100.182C167.789 99.4827 166.871 98.8391 165.897 98.2565C165.56 98.0217 165.217 97.7955 164.887 97.5868L167.405 96.9142L165.072 103.293C164.694 104.346 164.315 105.396 163.935 106.441C163.744 107.037 163.494 107.619 163.187 108.181C162.987 108.529 162.73 108.852 162.422 109.143C162.084 109.462 161.679 109.728 161.225 109.929C160.454 110.254 159.611 110.451 158.746 110.509C158.374 110.544 158.038 110.564 157.708 110.587L156.717 110.651L152.743 110.921L144.703 111.448L142.472 111.599L143.067 109.828C143.807 107.639 144.554 105.412 145.327 103.124L146.995 104.748C142.975 105.064 138.813 105.328 134.471 105.511C129.446 105.8 124.108 105.986 120.397 106.137C111.503 106.215 101.927 106.035 91.7796 105.432L90.0796 105.331L90.1327 103.93C90.3594 98.3551 90.5896 92.5884 90.8411 86.6623L92.8492 88.1815C82.1604 89.1847 71.0465 89.9211 59.8583 90.3183L57.7687 90.3995L59.3695 89.2195C58.732 92.6203 58.1122 95.9342 57.6341 98.703L57.4216 99.9207H55.881C54.7228 99.9207 53.6461 99.9468 52.6934 100.011C49.231 100.12 45.8003 100.594 42.4863 101.423L39.7485 102.107L40.3648 99.8366C40.9137 97.8274 41.4663 95.7979 42.0188 93.7482L42.4296 92.2202L42.6315 91.4722C42.6604 91.3402 42.6663 91.2055 42.6492 91.0721C42.6197 90.7665 42.5098 90.4698 42.3269 90.2023L42.2808 90.1501L42.3021 90.1327C42.4875 89.9888 42.6346 89.8151 42.7342 89.6225C42.7873 89.5036 42.7342 89.492 42.7838 89.6022C42.8882 89.802 43.044 89.981 43.2406 90.1269L40.556 88.9991C41.4556 84.4299 42.3517 79.9012 43.2017 75.5755L44.8379 77.0512C40.8004 77.2339 36.8975 77.402 33.2176 77.5383L34.5706 76.5032C34.1865 78.715 33.6257 80.9039 32.8918 83.0556C32.5376 84.3226 32.102 85.5954 31.592 86.9203L31.3228 87.6278L30.3914 87.6684L23.5311 87.9583L21.778 88.0366L22.1038 86.6043C23.3434 81.1508 24.4661 75.5639 25.394 70.1973L27.9901 71.357C27.6105 71.6347 27.2069 71.8896 26.7824 72.1195C26.5699 72.2355 26.3538 72.3428 26.1307 72.4471C25.9076 72.5515 25.7022 72.6356 25.4861 72.7226C24.6497 73.0526 23.7857 73.3336 22.9007 73.5634C21.2077 74.0128 19.6104 74.3259 18.2079 74.755C15.5539 75.5755 13.1596 76.8746 11.2024 78.5559C10.696 78.9386 10.2497 79.3706 9.78576 79.7968C9.3218 80.223 8.91451 80.6898 8.53554 81.174C7.73947 82.1346 7.07551 83.1643 6.55574 84.2443C6.02222 85.3331 5.63738 86.4668 5.40823 87.6249C5.21435 88.8048 5.1728 89.9981 5.28427 91.1852C5.39915 92.3906 5.66258 93.5834 6.07052 94.7455C6.25823 95.3254 6.51678 95.9052 6.75761 96.4851C6.99845 97.0649 7.31012 97.6245 7.64304 98.1754C8.93509 100.387 10.6046 102.437 12.6014 104.264C16.5858 107.929 21.5477 110.706 26.414 113.028C28.8507 114.188 31.2803 115.255 33.6249 116.252C35.9695 117.25 38.2291 118.183 40.3542 119.036C45.0859 121.065 50.5011 123.196 55.548 125.069C60.595 126.942 65.2629 128.583 68.4504 129.754L70.8482 130.508L70.5719 130.45C75.9872 131.134 80.1097 131.708 84.9477 132.34C90.5684 133.158 95.4453 133.842 100.722 134.547H100.616C104.158 134.648 107.884 134.735 112.109 134.764C116.334 134.793 121.059 134.764 126.63 134.535C128.89 134.535 132.527 134.37 136.104 134.124C139.681 133.877 143.187 133.544 145.242 133.451C147.345 133.248 149.084 133.077 150.625 132.9C152.166 132.723 153.522 132.61 154.818 132.378C155.467 132.269 156.108 132.132 156.738 131.966C157.396 131.799 158.035 131.585 158.647 131.326C159.327 131.05 159.946 130.685 160.481 130.244C161.099 129.733 161.537 129.095 161.749 128.397C161.714 128.56 161.679 128.731 161.64 128.911C161.601 129.09 161.498 129.264 161.416 129.456C161.195 129.853 160.898 130.22 160.538 130.543C159.628 131.316 158.512 131.905 157.276 132.265C155.752 132.721 154.169 133.032 152.559 133.193C150.83 133.407 148.928 133.628 146.846 133.836C145.734 134.179 151.121 133.489 150.002 133.836C148.461 133.932 145.645 134.225 142.677 134.509C139.709 134.793 136.589 135.043 134.461 135.13C131.981 135.344 129.417 135.509 126.74 135.651C124.062 135.794 121.278 135.883 118.427 135.941C112.718 136.052 106.711 135.994 100.563 135.883H100.517H100.467L86.1837 134.144L70.2213 132.323H70.1328L70.03 132.294C63.0777 130.204 56.1997 127.896 49.2297 125.301C42.2596 122.706 35.1974 119.827 27.9051 116.534C22.7519 114.237 17.4358 111.605 12.7997 108.039C8.16367 104.473 4.34572 99.8743 2.75904 94.6324C2.35967 93.3167 2.12237 91.9714 2.0507 90.6169C2.0507 90.2777 2.00465 89.9385 2.01882 89.5993L2.05778 88.5787C2.11085 87.8982 2.21017 87.2207 2.35528 86.5492C2.93037 83.8752 4.21424 81.3368 6.11657 79.1126C7.05928 78.0266 8.12664 77.017 9.30409 76.0973C10.4833 75.1994 11.7681 74.3991 13.1398 73.7083C14.5065 73.0326 15.9558 72.4758 17.4642 72.047C18.9411 71.6353 20.3613 71.3512 21.6575 71.0091C22.4277 70.8303 23.1815 70.6075 23.9136 70.3423C24.0942 70.2785 24.2678 70.2031 24.4378 70.1335C24.6078 70.0639 24.7565 69.9914 24.9124 69.9103C25.2263 69.7495 25.5246 69.5692 25.8049 69.371L29.2403 66.9414L28.532 70.5916C27.5049 75.8741 26.3149 81.5103 25.008 87.0682L23.3469 85.491L30.2037 85.2214L28.7126 86.152C29.9826 82.8971 30.872 79.5508 31.3689 76.1582L31.5353 74.9985L32.9733 74.9173L40.51 74.4911L44.5865 74.3259L46.7646 74.236L46.4105 75.9756C45.5203 80.3457 44.629 84.8251 43.7365 89.4137L40.9315 88.2279C41.2148 87.9959 41.557 87.8178 41.9338 87.7061C42.4277 87.5697 42.9627 87.5697 43.4567 87.7061C43.8388 87.8092 44.1875 87.9816 44.4767 88.2105C44.6857 88.3725 44.87 88.5545 45.0257 88.7527C45.2752 89.0721 45.4717 89.4172 45.61 89.779C45.7429 90.1164 45.8319 90.4643 45.8757 90.817C45.9261 91.2034 45.9106 91.5937 45.8296 91.9767L45.7942 92.1188L45.7694 92.2115L45.7198 92.4029L45.6171 92.7827L45.2134 94.3019C44.6679 96.3372 44.1213 98.3851 43.5736 100.445L41.4698 98.8712C46.1512 97.6752 51.0426 97.1236 55.9447 97.2389L54.3403 98.3406C54.6591 96.7373 54.9849 95.1108 55.3072 93.4843L56.1324 88.8339L56.3166 87.8017L57.6093 87.7466C68.7019 87.277 80.5808 86.5289 92.4525 85.4272L94.3013 85.2562L94.234 86.7754C93.9896 92.5739 93.7417 98.3551 93.4973 104.041L92.0311 102.701C101.324 103.281 110.352 103.458 118.792 103.319C127.6 103.319 137.035 102.927 146.683 102.144L149.059 101.953L148.426 103.843C147.686 106.06 146.938 108.296 146.18 110.549L144.445 108.83L152.484 108.282L156.511 108.01L157.521 107.94C157.875 107.917 158.179 107.897 158.463 107.871C158.898 107.846 159.324 107.752 159.716 107.595C159.831 107.537 159.932 107.462 160.014 107.375C160.132 107.248 160.231 107.109 160.308 106.963C160.529 106.512 160.714 106.05 160.864 105.58C161.239 104.525 161.616 103.472 161.994 102.423C162.749 100.324 163.5 98.2362 164.246 96.1604L164.955 94.2178L166.906 95.4529C167.885 96.07 168.825 96.728 169.722 97.4244C170.168 97.7724 170.597 98.1319 171.018 98.5001L171.638 99.0799L172.229 99.6598C173.795 101.255 174.945 103.097 175.608 105.07C175.902 105.903 176.06 106.763 176.079 107.63C176.113 108.481 175.994 109.332 175.725 110.155C175.194 111.677 174.264 113.086 173.001 114.284C171.892 115.347 170.699 116.35 169.428 117.285C168.234 118.198 167.048 119.07 166.031 120.001C165.107 120.833 164.728 121.3 164.462 121.558C164.197 121.816 164.108 121.874 164.02 121.906C163.871 121.946 163.746 122.028 163.665 122.138C163.341 122.549 163.133 123.015 163.056 123.501C163.028 123.599 163 123.695 162.975 123.79C162.95 123.886 162.939 123.985 162.925 124.08C162.889 124.272 162.869 124.466 162.865 124.66C162.847 125.052 162.865 125.46 162.893 125.881C162.989 126.777 162.902 127.681 162.635 128.554Z" fill="#F7D1A4"/>
<path d="M10.0938 51.4656C10.3346 51.7874 10.5896 52.1005 10.8552 52.4049C14.234 56.2668 19.2065 58.9631 24.1295 61.4739C25.5285 62.1842 27.0195 62.9931 28.0254 64.0224C28.7195 59.8358 29.337 55.6425 29.8777 51.4424L10.0938 51.4656Z" fill="#F7D1A4"/>
<path d="M9.27562 51.0936C9.39095 51.2976 9.49262 51.5067 9.58021 51.7198C9.71261 52.0171 9.88359 52.3019 10.0902 52.5693C10.1422 52.635 10.1953 52.6988 10.2496 52.7607L10.37 52.8824C10.4479 52.9607 10.5258 53.039 10.6038 53.1057C10.7243 53.2214 10.868 53.3194 11.0288 53.3956C11.5034 53.3376 11.0713 52.6679 11.4219 52.7809C11.6627 52.7201 10.7879 52.1808 11.0677 52.1518C11.1623 52.1402 11.2455 52.0944 11.2944 52.0271C11.3325 51.9738 11.3929 51.9337 11.4644 51.9141C11.4996 51.921 11.5315 51.9361 11.5565 51.9576L11.5777 51.9749L11.6238 52.0155L11.7159 52.0996C11.8363 52.2127 11.9567 52.3258 12.07 52.4243C12.3002 52.6215 12.534 52.7375 12.7075 52.6592C12.9769 52.9144 13.2668 53.1546 13.5752 53.3782C13.8034 53.5646 14.0792 53.7071 14.3828 53.7957C15.6223 55.0482 17.0922 55.8571 18.732 56.9994C19.1681 57.227 19.6323 57.4165 20.1168 57.5648C21.1616 58.2171 22.4012 58.8491 23.7151 59.516C24.3774 59.8523 25.0362 60.177 25.7551 60.5655C26.5099 60.9647 27.2209 61.4167 27.8802 61.9166C28.4433 62.3109 28.9816 62.7719 29.4066 63.1082L26.2899 63.8185C26.2899 63.7721 26.2899 63.7344 26.2899 63.6996C26.9204 61.847 26.892 59.5943 27.6287 58.0895C27.6641 56.5094 27.866 54.7177 27.7243 53.3608C27.8802 52.6969 28.0183 51.9894 28.1316 51.282L29.9025 52.8824C28.075 52.8621 26.2651 52.9085 24.9724 52.981C23.8391 52.8157 22.472 52.7375 21.5689 52.433C20.8605 52.4069 20.3222 52.3113 19.6847 52.2562C18.0863 51.9741 16.4569 51.8264 14.8219 51.8155C14.1455 51.6792 13.0865 51.6966 12.4171 51.5719C11.3546 51.5053 11.1244 51.5314 10.1115 51.456C10.1327 51.3023 10.6569 51.2327 11.684 51.2588C11.599 51.1342 11.0606 51.1921 10.9756 51.0733C11.4963 51.1545 12.3746 51.0936 12.9696 51.1516C14.3863 51.024 16.3944 50.9631 18.4203 50.9283C20.8011 50.6899 23.1972 50.5679 25.5958 50.563C26.9381 50.447 28.4079 50.3745 29.8741 50.3079L31.3581 50.2383L31.2589 51.5633C31.1704 52.723 31.0854 53.8827 31.0677 54.9728C30.7021 56.5793 30.4937 58.2071 30.4444 59.8407C30.0477 61.2063 29.9485 62.7052 29.6156 64.2157L28.9285 67.3527L26.7858 64.8593C26.6477 64.7028 26.5024 64.5404 26.3466 64.3752C25.1305 63.5896 23.8553 62.8672 22.5287 62.2123C21.073 61.4469 19.6245 60.6612 18.2574 60.0059C17.1205 59.255 15.8065 58.4867 14.528 57.6256C13.2337 56.7871 12.0682 55.8234 11.0571 54.7554C10.7348 54.4973 10.4408 54.2654 10.1433 54.0479C9.84584 53.8305 9.56958 53.6043 9.27917 53.3666L9.21187 53.2912L9.14458 53.2071C9.10708 53.1564 9.07279 53.1042 9.04187 53.0506C8.99592 52.9797 8.96366 52.9034 8.94625 52.8244C8.92 52.7525 8.94936 52.6746 9.02062 52.6273C9.13041 52.549 9.2225 52.5142 9.03833 52.0474C9.01566 51.718 9.0974 51.3895 9.27562 51.0936Z" fill="#F7D1A4"/>
<path d="M54.7829 126.334C54.705 125.03 54.4925 123.641 53.4619 122.646C52.4312 121.652 50.3062 121.33 49.2827 122.328C49.4382 119.388 49.0526 116.446 48.1387 113.601C47.9262 112.937 47.6499 112.238 46.9983 111.803C45.8933 111.073 44.1366 111.467 43.1874 112.331C42.582 112.93 42.1486 113.632 41.9195 114.386C41.8911 113.465 41.0861 112.684 39.9818 112.505C38.8776 112.326 37.7697 112.798 37.3153 113.641C37.5974 111.45 37.4044 109.234 36.7451 107.098C36.6556 106.688 36.4507 106.301 36.1465 105.967C35.3425 105.19 33.7417 105.329 32.789 105.984C31.8363 106.64 31.3723 107.634 30.9438 108.594C31.0713 105.694 31.1704 102.676 29.6935 100.041C28.2167 97.4054 24.636 95.3208 21.2147 96.0659C16.7593 97.0372 15.4736 101.896 16.6955 105.538C16.2563 103.659 13.4124 102.639 11.1882 103.218C10.6832 103.353 10.2057 103.548 9.77148 103.798C10.3122 104.378 10.8765 104.931 11.4644 105.457C16.869 110.365 23.9524 113.801 31.0606 116.938C38.8028 120.353 46.7067 123.505 54.7723 126.392C54.7641 126.373 54.7681 126.351 54.7829 126.334Z" fill="#454367"/>
<path d="M55.718 126.296C55.5232 125.853 55.4842 124.794 55.0097 123.687C54.7836 123.139 54.4219 122.636 53.9471 122.208C53.5703 121.875 53.0888 121.633 52.5553 121.509C52.1515 121.559 52.5553 121.799 52.8457 122.066C52.9641 122.169 53.0643 122.285 53.1432 122.411C53.1786 122.489 53.1432 122.51 52.959 122.44C52.8882 122.44 52.959 122.527 53.1007 122.643C53.2728 122.796 53.4314 122.959 53.5753 123.13C53.9011 123.516 54.0959 123.971 53.9542 123.927C53.8126 123.884 53.7453 123.956 53.7276 124.078C53.7098 124.2 53.6921 124.351 53.593 124.368C53.4707 124.063 53.3042 123.771 53.0971 123.498C52.9931 123.367 52.8746 123.244 52.743 123.13C52.6356 123.038 52.5169 122.956 52.3888 122.884C52.166 122.765 51.9126 122.691 51.6486 122.666C51.4396 122.666 51.2944 122.698 51.2625 122.773C51.0511 122.749 50.8356 122.764 50.6321 122.817C50.496 122.851 50.3777 122.922 50.2957 123.017C49.9703 123.394 49.3843 123.556 48.8463 123.417C48.3084 123.278 47.9421 122.87 47.9404 122.408V122.269C47.9784 121.381 47.8796 120.493 47.6465 119.625C47.5942 117.64 47.2373 115.669 46.584 113.757C46.4981 113.433 46.333 113.128 46.0987 112.858C46.0429 112.807 45.974 112.766 45.8969 112.739C45.7964 112.707 45.6892 112.693 45.5817 112.696C45.2338 112.717 44.9002 112.817 44.6183 112.986C44.2688 113.207 43.9884 113.493 43.8002 113.82C43.6529 114.122 43.5345 114.432 43.446 114.748C43.2716 115.343 42.6113 115.755 41.8647 115.737C41.1181 115.718 40.4903 115.272 40.3612 114.67L40.3187 114.447C40.2897 114.301 40.2098 114.165 40.0885 114.055C40.0268 113.988 39.9253 113.952 39.8228 113.963C39.6659 113.907 39.4875 113.907 39.3306 113.963C39.1542 114.002 39.0032 114.095 38.9091 114.223C38.6191 114.913 37.742 115.313 36.8734 115.152C36.0048 114.992 35.423 114.322 35.5232 113.597V113.493C35.786 111.433 35.5916 109.352 34.9495 107.349C34.9094 107.204 34.8476 107.062 34.7653 106.929L34.8113 106.894C34.8113 106.912 34.8113 106.894 34.7795 106.932C34.7476 106.97 34.7795 106.955 34.7582 106.955C34.5496 106.918 34.3318 106.942 34.142 107.022C34.0078 107.076 33.8876 107.151 33.7878 107.242C33.6262 107.376 33.4858 107.526 33.3699 107.689C33.0567 108.141 32.7936 108.615 32.5836 109.106L32.5624 109.15C32.2519 109.804 31.4086 110.179 30.5691 110.035C29.7296 109.891 29.1404 109.271 29.1765 108.57C29.2225 107.88 29.2686 107.196 29.2969 106.52C29.3323 105.07 29.1978 103.702 28.879 102.829C28.7372 101.76 28.313 100.728 27.6359 99.8054C26.9426 98.9176 25.9797 98.1924 24.8415 97.7005C23.8459 97.2656 22.6979 97.1243 21.5902 97.3004C20.6008 97.5082 19.7057 97.9451 19.0118 98.5587C18.2836 99.5315 17.8569 100.635 17.7687 101.774C17.6467 102.935 17.8018 104.105 18.2256 105.218L15.1195 105.798C15.0535 105.625 14.949 105.462 14.8114 105.32C14.6576 105.172 14.4773 105.044 14.2766 104.94C13.8536 104.733 13.3706 104.622 12.8776 104.618C12.5421 104.563 12.1966 104.563 11.8611 104.618C11.4809 104.689 11.1203 104.818 10.7986 104.998L11.1989 102.884L12.5447 104.235C12.7643 104.465 13.0157 104.679 13.253 104.894C13.4903 105.108 13.7382 105.331 14.0003 105.537C15.0033 106.37 16.0615 107.157 17.1702 107.894C19.1668 109.206 21.2813 110.394 23.4956 111.446C25.904 112.896 29.1907 114.435 30.749 115.485C32.4065 116.227 33.547 116.821 34.9601 117.482C38.1689 119.196 40.4674 120.24 45.4187 122.231C46.4812 122.863 49.1021 123.806 50.0548 124.391C52.1798 125.305 52.8882 125.507 54.7865 126.348V126.325V126.348C53.7984 126.328 52.3073 125.905 50.1823 125.035C49.7715 125.119 51.2271 125.571 50.8163 125.652C50.1079 125.212 47.9192 124.464 46.8815 123.942C43.2583 122.721 38.8383 120.947 34.4501 119.057C31.808 118.059 29.2686 117.027 26.6973 115.867C23.9978 114.669 21.3834 113.347 18.8666 111.907C15.0193 109.868 11.5688 107.367 8.63112 104.488C8.38888 104.249 8.27385 103.94 8.3118 103.631C8.34974 103.322 8.53749 103.039 8.833 102.844L8.90737 102.8L8.95696 102.771C9.64275 102.362 10.4201 102.066 11.2449 101.902C12.0784 101.743 12.9433 101.728 13.7843 101.858C14.6052 101.981 15.3886 102.236 16.0899 102.606C16.8207 102.992 17.4279 103.516 17.8608 104.134C17.9633 104.306 18.0531 104.484 18.13 104.665C18.2079 104.85 18.2575 105.053 18.3177 105.262C18.4947 105.981 17.9454 106.687 17.074 106.859C16.2026 107.031 15.3207 106.609 15.077 105.903V105.882C14.7594 104.822 14.6118 103.732 14.6378 102.641C14.6554 101.495 14.8871 100.358 15.3249 99.269C15.7668 98.1232 16.5297 97.0778 17.5527 96.2161L17.9493 95.8972L18.3956 95.6072C18.5443 95.5173 18.686 95.4188 18.8454 95.3405L19.327 95.123C19.4824 95.0474 19.6432 94.9796 19.8087 94.9201L20.3081 94.7635C20.4746 94.7171 20.6375 94.6621 20.8039 94.6215L21.3139 94.5258C22.136 94.419 22.9742 94.4269 23.7931 94.549C24.5898 94.6564 25.363 94.8586 26.0881 95.1491C26.8001 95.4304 27.4674 95.7819 28.075 96.1958C28.688 96.5956 29.2451 97.0497 29.7361 97.5497C29.9892 97.7991 30.2257 98.0594 30.4444 98.3297C30.6588 98.6055 30.8562 98.89 31.0359 99.182C31.3813 99.7509 31.6611 100.345 31.8717 100.956C32.2733 102.142 32.484 103.365 32.4986 104.595C32.6139 105.935 32.6352 107.28 32.5624 108.622L29.4492 108.121C29.7033 107.506 30.0196 106.909 30.3949 106.337C30.6257 106.003 30.8988 105.689 31.2094 105.401C31.3788 105.246 31.5611 105.101 31.7549 104.966C31.9753 104.818 32.2125 104.687 32.4632 104.575C32.95 104.354 33.4816 104.208 34.0322 104.143C34.6251 104.07 35.2303 104.108 35.803 104.253C36.4572 104.417 37.0351 104.739 37.4605 105.178C37.8017 105.546 38.0519 105.966 38.1972 106.413C38.261 106.593 38.3105 106.755 38.353 106.903C38.3955 107.051 38.4416 107.21 38.4805 107.364C38.562 107.671 38.6328 107.978 38.6966 108.289C38.8206 108.906 38.9126 109.527 38.9693 110.141C39.0794 111.354 39.0652 112.572 38.9268 113.783L35.8384 113.113C36.2524 112.346 37.0052 111.736 37.9457 111.405C38.8192 111.083 39.8002 111.011 40.7295 111.202C41.5598 111.408 42.2834 111.833 42.7873 112.411C43.2715 112.971 43.5482 113.634 43.5841 114.319L40.3576 114.009C40.6268 113.205 41.0668 112.447 41.6574 111.768C41.8361 111.574 42.0326 111.392 42.2454 111.223C42.9258 110.69 43.7726 110.32 44.6927 110.156C45.3751 110.033 46.0837 110.048 46.7575 110.199C47.4925 110.374 48.1464 110.726 48.6346 111.208C49.0253 111.612 49.3273 112.068 49.5271 112.556C49.7077 112.983 49.814 113.339 49.9273 113.696C50.8256 116.533 51.1605 119.47 50.919 122.394L48.0644 121.483L48.291 121.292C48.4602 121.15 48.6452 121.022 48.8436 120.909C49.0353 120.797 49.2392 120.7 49.4527 120.619C49.845 120.48 50.2603 120.389 50.6852 120.35C51.4243 120.292 52.1698 120.366 52.8705 120.567C53.5557 120.76 54.1817 121.073 54.7051 121.483L54.9105 121.649L55.0769 121.802C55.1903 121.907 55.2894 122.017 55.3886 122.127C55.5847 122.348 55.7588 122.582 55.9092 122.826C56.0795 123.087 56.1888 123.372 56.2315 123.666C56.2315 123.817 56.189 123.866 56.1324 123.907C56.019 123.988 55.9163 124.038 56.0544 124.684C56.0194 125.23 55.9065 125.771 55.718 126.296Z" fill="#454367"/>
<path d="M125.234 23.8379C135.047 23.9597 144.855 23.7123 154.659 23.0957C152.587 22.8319 150.409 22.5158 148.822 21.3938C147.76 20.6168 147.076 19.5354 146.269 18.5583C145.461 17.5813 144.374 16.6477 142.957 16.4447C141.54 16.2418 139.858 17.1435 140.018 18.3148C140.329 16.7956 139.338 15.2357 137.864 14.2761C136.391 13.3164 134.51 12.8786 132.647 12.6641C131.97 12.551 131.27 12.5708 130.604 12.7221C129.258 13.1106 128.599 14.4297 128.751 15.5895C128.904 16.7492 129.665 17.79 130.412 18.7787C129.662 17.9524 128.865 17.1116 127.76 16.6187C126.655 16.1258 125.157 16.0823 124.218 16.784C123.403 17.4044 123.255 18.4481 123.563 19.3237C123.871 20.1993 124.551 20.9502 125.217 21.6779C124.969 20.6661 122.84 20.7328 122.419 21.704C121.997 22.6753 123.049 23.7625 124.285 23.9568L122.908 23.9336" fill="white"/>
<path d="M125.231 23.992C125.9 23.9514 128.302 24.0065 129.102 23.963C129.477 23.8963 128.039 23.8673 128.549 23.8354C128.677 23.7978 127.044 23.8354 127.168 23.8007C127.37 23.7601 126.888 23.7485 126.892 23.7166C127.954 23.7166 129.541 23.7166 129.654 23.6586C131.071 23.6586 132.506 23.6383 133.242 23.589C136.504 23.589 139.384 23.4991 142.9 23.4064C143.789 23.3687 144.728 23.3223 145.38 23.2759C148.16 23.1773 151.315 23.0063 154.631 22.8004L154.602 23.3803C153.713 23.2798 152.831 23.1405 151.96 22.9628C151.046 22.7796 150.174 22.4792 149.375 22.0727C148.883 21.8158 148.436 21.5056 148.046 21.1507C147.731 20.8578 147.436 20.55 147.165 20.2287C146.665 19.6025 146.219 18.9328 145.674 18.3355C145.165 17.7339 144.486 17.2424 143.694 16.9033C143.321 16.7524 142.912 16.6731 142.497 16.6713C142.1 16.6774 141.711 16.762 141.363 16.9178C140.703 17.1563 140.277 17.6923 140.28 18.2833H139.759C139.759 18.205 139.787 18.1326 139.801 18.063C139.929 16.8888 139.203 15.6305 138.112 14.7955C137.054 14.0271 135.768 13.4992 134.383 13.2647C133.883 13.1524 133.375 13.0633 132.863 12.9979C132.355 12.9153 131.837 12.8832 131.319 12.9023C130.839 12.9262 130.384 13.0826 130.026 13.3459C129.67 13.6205 129.406 13.9661 129.261 14.349C129.114 14.7309 129.06 15.1329 129.102 15.5319C129.157 15.924 129.276 16.3083 129.456 16.6742C129.81 17.3554 130.242 18.0078 130.745 18.6225L130.104 18.9792L129.956 18.8226C129.422 18.1619 128.763 17.5747 128.004 17.083C127.381 16.7093 126.63 16.5064 125.858 16.5032C124.912 16.4982 124.077 17.0051 123.807 17.747C123.56 18.3875 123.599 19.0789 123.917 19.6982C124.286 20.3918 124.77 21.0405 125.355 21.6262L125.096 21.7219C125.022 21.2841 124.328 20.9826 123.612 21.1072C123.378 21.1302 123.154 21.1999 122.961 21.3102C122.72 21.4484 122.551 21.6552 122.486 21.89C122.41 22.1197 122.41 22.362 122.486 22.5917C122.548 22.7734 122.641 22.9471 122.762 23.1077C122.962 23.351 123.223 23.5566 123.527 23.7108C123.764 23.8337 124.025 23.9211 124.299 23.9688V24.0123L122.922 23.9659C123.381 23.9306 123.842 23.916 124.303 23.9224L124.285 24.0558C123.718 23.9662 123.205 23.7195 122.833 23.3571C122.745 23.3049 122.865 23.4324 123.003 23.5484C123.141 23.6644 123.304 23.763 123.201 23.7282C122.841 23.4903 122.556 23.185 122.369 22.8381C122.144 22.444 122.144 21.9884 122.369 21.5943C122.657 21.1541 123.215 20.8766 123.825 20.8695C124.145 20.8384 124.47 20.8795 124.763 20.9884C125.079 21.122 125.304 21.3648 125.376 21.6494L125.489 22.1568L125.118 21.7567C124.585 21.2174 124.122 20.6344 123.736 20.0171C123.321 19.3524 123.188 18.5936 123.357 17.86C123.432 17.5409 123.586 17.2379 123.811 16.97C124.045 16.7025 124.355 16.4856 124.714 16.3379C125.44 16.0673 126.261 16.0199 127.027 16.2045C127.788 16.3882 128.482 16.724 129.045 17.1816C129.61 17.6412 130.126 18.1398 130.586 18.6718L130.232 18.8719C129.902 18.4341 129.552 17.9673 129.247 17.4599C128.693 16.6601 128.44 15.7445 128.518 14.8274C128.582 14.3455 128.778 13.8817 129.091 13.4705C129.412 13.0377 129.897 12.7027 130.473 12.5167C131.042 12.3591 131.648 12.3115 132.243 12.3775C132.799 12.4233 133.351 12.492 133.897 12.5833C134.967 12.7505 136.001 13.0435 136.968 13.4531C137.476 13.6844 137.951 13.9605 138.385 14.2765C138.839 14.6179 139.234 15.008 139.561 15.4362C139.892 15.8729 140.138 16.3493 140.29 16.8482C140.433 17.3461 140.459 17.8615 140.368 18.3674L139.982 20.3969L139.702 18.3674C139.647 17.9522 139.773 17.5345 140.056 17.1874C140.32 16.883 140.667 16.6329 141.069 16.4568C141.463 16.2902 141.895 16.1915 142.337 16.1669C142.565 16.1548 142.793 16.1645 143.017 16.1958C143.236 16.2295 143.45 16.278 143.658 16.3408C144.474 16.6124 145.196 17.0446 145.759 17.5991C146.92 18.6718 147.568 20.0026 148.705 20.9826C149.46 21.583 150.381 22.0256 151.39 22.2727C152.474 22.5411 153.584 22.7351 154.708 22.8526L157.464 23.2034L154.684 23.3745C151.602 23.5629 148.472 23.7166 145.691 23.8528C141.204 24.0007 135.799 24.1805 131.039 24.1428L127.441 24.1892C126.378 24.1892 127.204 24.108 126.336 24.0964C125.907 24.0558 125.578 24.0239 125.231 23.992Z" fill="white"/>
<path d="M0.279794 45.6665C11.6345 44.9939 23.3008 46.3537 34.2801 43.8719C31.6699 43.724 28.4469 43.1847 27.774 41.1147C27.5615 40.4594 27.6677 39.7549 27.4198 39.1055C26.9485 37.8768 25.3778 37.1706 23.8583 37.5041C22.3387 37.8376 21.4104 39.0923 21.7531 40.3493C21.9444 39.1142 23.1167 38.082 23.2654 36.8411C23.4673 35.1624 21.5619 33.6519 19.5148 33.4751C17.4677 33.2982 15.4595 34.2115 14.0782 35.464C12.697 36.7165 11.8364 38.2821 10.997 39.8129C11.8682 38.975 11.0218 37.5109 9.70779 37.276C8.39382 37.0412 7.04089 37.7747 6.39631 38.7402C5.75172 39.7056 5.68797 40.8537 5.68797 41.9555C6.16848 41.8074 6.52978 41.4759 6.65485 41.0683C4.49087 40.4159 1.92314 42.4048 2.60315 44.2111C1.46673 44.2686 0.463556 44.8384 0 45.6897" fill="white"/>
<path d="M0.293961 45.8199C0.648131 45.7764 1.46626 45.7329 2.3021 45.6895C3.13794 45.646 3.99504 45.6344 4.42712 45.5996C4.82733 45.5184 3.29024 45.5416 3.83212 45.4923C3.96316 45.4488 2.22064 45.5503 2.35169 45.5097C2.56419 45.4575 2.0471 45.4749 2.05064 45.4401C3.19107 45.3792 4.884 45.3415 5.0115 45.2807C6.53089 45.243 8.06799 45.2314 8.86487 45.1879C12.3641 45.2082 15.4524 45.2169 19.2137 45.1705C20.1664 45.1386 21.1687 45.1009 21.8664 45.0516C23.7152 44.9791 25.7127 44.8545 27.7917 44.6312C29.9404 44.3897 32.0693 44.0421 34.1668 43.5904L34.2376 44.1702C33.1677 44.1161 32.1076 43.9704 31.0749 43.7353C30.477 43.6019 29.9022 43.4071 29.3642 43.1555C28.8973 42.9377 28.4774 42.6585 28.1211 42.3292C27.7843 41.9669 27.5431 41.5512 27.4127 41.1086C27.3222 40.68 27.2654 40.2471 27.2427 39.8126C27.2208 39.0256 26.6782 38.3104 25.8261 37.9455C25.041 37.5723 24.0718 37.5723 23.2867 37.9455C22.594 38.3022 22.1141 38.8789 21.9621 39.5372C21.9163 39.7932 21.9307 40.0539 22.0046 40.3055L21.4804 40.3287C21.6129 39.6923 21.8725 39.0781 22.2489 38.5108C22.6022 37.9902 22.8419 37.4231 22.9573 36.8351C22.9831 36.5633 22.9532 36.2899 22.8687 36.0262C22.7806 35.77 22.6469 35.5257 22.4721 35.3013C22.1382 34.8818 21.691 34.5307 21.1652 34.275C20.7163 34.0364 20.2125 33.8756 19.6848 33.8024C19.1342 33.7318 18.5726 33.7436 18.0272 33.8372C16.9054 34.0437 15.8689 34.4864 15.0203 35.1216C14.2004 35.7349 13.5068 36.4525 12.9662 37.2468C12.4754 37.9533 12.0344 38.6822 11.6451 39.4299C11.5495 39.601 11.4468 39.7749 11.3476 39.9547L10.7101 39.6242C10.8251 39.5118 10.9085 39.3802 10.9545 39.2386C10.9901 39.0834 10.9901 38.9241 10.9545 38.7689C10.8765 38.4438 10.6802 38.1456 10.3913 37.9136C9.89108 37.5335 9.18339 37.3969 8.52841 37.5541C8.02969 37.6831 7.57646 37.9089 7.20736 38.2122C6.85889 38.494 6.58308 38.8302 6.39631 39.2009C5.91464 40.1112 5.85443 40.9955 5.84734 41.9668L5.62776 41.845C6.06052 41.714 6.38824 41.4187 6.5061 41.0535L6.59818 41.1956C6.1922 41.0808 5.75787 41.0499 5.3338 41.1057C4.83243 41.1776 4.35975 41.3477 3.95608 41.6015C3.47459 41.8759 3.0908 42.2501 2.84398 42.6858C2.77284 42.8067 2.71592 42.9329 2.67398 43.0627C2.62808 43.1834 2.59839 43.3078 2.58544 43.4338C2.56977 43.5446 2.56977 43.6565 2.58544 43.7672C2.58395 43.8588 2.59464 43.9501 2.61731 44.0398C2.61731 44.1064 2.64919 44.1731 2.65982 44.2137V44.2601H2.60669C2.04467 44.2813 1.50166 44.4332 1.04126 44.6979C0.592619 44.9517 0.233497 45.2976 0 45.701C0.131264 45.368 0.365516 45.0683 0.680006 44.8313C1.18021 44.4401 1.83162 44.2042 2.52169 44.1644C2.63502 44.1354 2.42252 44.1354 2.21002 44.1644C1.99752 44.1934 1.79564 44.2369 1.89835 44.1876C2.1314 44.1455 2.36833 44.1193 2.60669 44.1093L2.47211 44.2659C2.36306 43.9322 2.34134 43.5835 2.40835 43.2425C2.47658 42.9343 2.61472 42.6392 2.81565 42.3727C3.1714 41.8464 3.71009 41.4186 4.36337 41.1434C4.71317 40.9896 5.09527 40.8912 5.48963 40.8535C5.90354 40.82 6.32139 40.8596 6.71506 40.9694L6.84256 41.0013L6.81069 41.1144C6.67384 41.5631 6.27675 41.9282 5.74818 42.0914L5.54276 42.1523V41.9755C5.48515 41.0764 5.61816 40.1759 5.93589 39.3139C6.15961 38.7219 6.57732 38.1915 7.1436 37.7802C7.7158 37.353 8.45563 37.1073 9.22966 37.0873C9.63048 37.0836 10.0249 37.1699 10.3701 37.3366C10.7147 37.5056 11.003 37.7416 11.2095 38.0238C11.4269 38.3079 11.5491 38.6339 11.5636 38.9689C11.5773 39.3238 11.4339 39.6708 11.1599 39.946L10.1824 40.8882L10.7986 39.7575C11.2024 39.0124 11.6203 38.2441 12.1303 37.4729C12.6607 36.6209 13.3317 35.8327 14.1243 35.1303C14.971 34.3979 16.0136 33.8362 17.1702 33.4893C17.7609 33.323 18.3802 33.2349 19.0048 33.2284C19.6333 33.2175 20.2575 33.3163 20.8358 33.5183C21.974 33.8968 22.8856 34.6254 23.3752 35.5478C23.5653 35.958 23.6403 36.3979 23.5948 36.8351C23.5334 37.2753 23.3876 37.7048 23.1627 38.1078C22.7412 38.8993 22.1923 39.63 22.0789 40.3896L21.8594 41.8711L21.4344 40.4215C21.2649 39.7971 21.3756 39.1436 21.746 38.5804C22.0724 38.0542 22.5962 37.6274 23.2406 37.3627C24.1259 37.0373 25.1441 37.0597 26.0067 37.4236C26.4436 37.5985 26.8318 37.8453 27.1471 38.1484C27.4656 38.4617 27.6889 38.8323 27.7988 39.2299C28.0042 40.0127 27.8767 40.7491 28.2132 41.3666C28.3766 41.6776 28.6097 41.9608 28.9003 42.2016C29.2118 42.4433 29.5621 42.6491 29.9415 42.8134C31.1988 43.3265 32.7359 43.5237 34.2978 43.6194L36.2068 43.7353L34.3616 44.1383C32.3301 44.5768 30.2688 44.9166 28.1884 45.156C26.1165 45.3763 24.0835 45.5329 22.1994 45.6199C17.3756 45.7996 11.5743 45.7271 6.50256 45.7416L4.52275 45.7996L2.6669 45.8866C1.52647 45.9417 2.40835 45.817 1.48751 45.8547C1.02001 45.8431 0.665839 45.8286 0.293961 45.8199Z" fill="white"/>
<path d="M2.76245 90.6437C2.81968 90.5612 2.88994 90.4851 2.97141 90.4176L3.1237 90.2987C3.16553 90.2734 3.20572 90.2463 3.24412 90.2175C3.28308 90.1566 3.04579 90.2726 3.11308 90.2175C3.11308 90.1827 2.90058 90.3799 2.90058 90.3509C2.90058 90.3219 2.83683 90.3509 2.82266 90.3509C2.90284 90.281 2.98926 90.2161 3.0812 90.1566C3.16975 90.1045 3.23704 90.061 3.23704 90.0407C3.4513 89.9436 3.67669 89.864 3.90996 89.8029C4.55445 89.7073 5.21924 89.7751 5.8154 89.9972C5.98185 90.0494 6.16956 90.119 6.27227 90.1682C6.67227 90.3732 7.01501 90.6449 7.27812 90.9655C7.55965 91.3139 7.76906 91.6979 7.89791 92.1021C7.96166 92.2789 8.01125 92.4558 8.05021 92.5775C8.16976 93.1519 8.21723 93.7348 8.19187 94.3171C8.19187 94.4505 8.19187 94.5838 8.20958 94.7172L7.94041 94.6679C8.13847 94.3357 8.42974 94.0466 8.79042 93.8242C9.17681 93.6252 9.61 93.4948 10.0619 93.4415C10.4736 93.3943 10.893 93.421 11.2909 93.5198C11.6511 93.6247 11.9695 93.8082 12.2117 94.0504C12.3507 94.1715 12.4698 94.307 12.5659 94.4534C12.6672 94.6149 12.7502 94.7838 12.8138 94.9578C12.8914 95.1699 12.9366 95.389 12.9484 95.6102C12.9424 95.788 12.9079 95.9645 12.8457 96.135C12.796 96.305 12.7161 96.4682 12.6084 96.6191C12.6084 96.5235 12.6969 96.3843 12.7677 96.1639C12.7677 96.1292 12.7217 96.2741 12.704 96.2364C12.7337 96.1755 12.7562 96.1124 12.7713 96.048C12.789 95.9726 12.8032 95.9001 12.8173 95.8276C12.8287 95.3889 12.694 94.956 12.4277 94.5751C12.069 94.0942 11.4711 93.7658 10.7915 93.6764C10.3944 93.643 9.99324 93.6806 9.61564 93.7865C9.24731 93.893 8.91399 94.0676 8.64167 94.2968C8.46351 94.4343 8.31608 94.5962 8.20604 94.7752L7.90146 95.2768V94.7172C7.90146 94.4273 7.90146 94.1374 7.86604 93.8938C7.8564 93.381 7.78523 92.8702 7.65354 92.3688C7.53323 91.9799 7.34853 91.6063 7.10457 91.2584C6.87355 90.9141 6.53657 90.6252 6.12706 90.4205C5.38193 90.0126 4.44778 89.9109 3.59829 90.145C3.49855 90.1809 3.40458 90.2267 3.3185 90.2813L3.19808 90.3567L3.09183 90.4437C2.96079 90.5509 3.021 90.4437 2.92183 90.5307C2.8687 90.5712 2.81558 90.6118 2.76245 90.6437H2.76245Z" fill="#454367"/>
<path d="M19.5751 105.471C19.5751 105.425 19.5928 105.454 19.5751 105.413C19.5574 105.373 19.5326 105.326 19.522 105.295C19.5114 105.263 19.522 105.309 19.5007 105.271C19.4913 105.245 19.4794 105.218 19.4653 105.193C19.4653 105.176 19.4653 105.193 19.4653 105.121C19.4653 105.121 19.4653 105.1 19.4653 105.06C19.5007 105.08 19.5078 105.042 19.5432 105.06C19.5451 105.045 19.5451 105.031 19.5432 105.016C19.5822 105.016 19.607 104.973 19.6601 104.999C19.7133 105.025 19.6778 104.999 19.6601 104.979C19.7097 105.028 19.7203 104.979 19.777 105.037C19.777 104.999 19.8089 104.981 19.8053 104.926C19.8478 104.947 19.8833 104.926 19.8939 104.886C19.9271 104.908 19.9538 104.935 19.9718 104.967C19.9718 104.967 19.9966 104.967 20.0072 104.987C20.0462 105.042 20.0639 105.051 20.0922 105.051C20.1205 105.051 20.1241 105.071 20.1453 105.112C20.1666 105.152 20.163 105.112 20.1878 105.144C20.2126 105.176 20.2091 105.228 20.1878 105.216C20.1969 105.238 20.2076 105.259 20.2197 105.28C20.202 105.251 20.1949 105.266 20.1808 105.248C20.1808 105.28 20.1524 105.286 20.1276 105.292C20.129 105.325 20.1049 105.355 20.0674 105.367C20.0674 105.413 20.0214 105.434 20.0108 105.486C19.9753 105.463 19.9576 105.486 19.947 105.518C19.908 105.489 19.8974 105.518 19.8549 105.497C19.8337 105.541 19.7699 105.497 19.7487 105.555C19.7026 105.535 19.6849 105.599 19.6353 105.573C19.6332 105.593 19.6332 105.614 19.6353 105.634C19.6353 105.634 19.5999 105.555 19.5928 105.555L19.5751 105.471Z" fill="#FA9579"/>
<path d="M20.5454 107.758C20.5277 107.711 20.5879 107.723 20.5737 107.68C20.5595 107.636 20.4993 107.61 20.4852 107.578C20.471 107.546 20.4852 107.598 20.4497 107.578C20.4329 107.554 20.414 107.531 20.3931 107.508C20.3931 107.485 20.4285 107.485 20.3931 107.427C20.4115 107.405 20.4115 107.377 20.3931 107.355C20.4568 107.355 20.471 107.308 20.5347 107.297C20.542 107.28 20.542 107.262 20.5347 107.245C20.602 107.224 20.641 107.155 20.7331 107.14C20.7501 107.133 20.76 107.118 20.7579 107.103C20.8499 107.103 20.8535 107.033 20.9597 107.068C20.9837 107.019 20.991 106.966 20.981 106.914C21.0493 106.893 21.0973 106.843 21.1049 106.784C21.151 106.784 21.1793 106.763 21.2537 106.784H21.3104C21.3654 106.8 21.4268 106.787 21.4662 106.752C21.5122 106.752 21.5193 106.737 21.5689 106.752C21.6185 106.766 21.6008 106.734 21.6433 106.734C21.7035 106.778 21.7141 106.801 21.6822 106.813C21.7247 106.839 21.7177 106.813 21.7566 106.845C21.7212 106.845 21.7177 106.859 21.6858 106.845C21.6867 106.891 21.6635 106.935 21.622 106.966C21.6237 107.028 21.5942 107.088 21.5406 107.132C21.5406 107.207 21.4768 107.268 21.4591 107.346C21.3954 107.346 21.3635 107.413 21.3422 107.459C21.321 107.506 21.2431 107.526 21.1652 107.532C21.1191 107.61 20.9881 107.624 20.9456 107.706C20.8535 107.72 20.8039 107.813 20.6977 107.822C20.6869 107.846 20.6786 107.871 20.6729 107.897C20.6729 107.897 20.6197 107.83 20.6056 107.833C20.5833 107.809 20.5632 107.784 20.5454 107.758Z" fill="#FA9579"/>
<path d="M19.6141 101.143C19.5893 101.099 19.6141 101.125 19.6141 101.087C19.6141 101.05 19.561 101.006 19.5433 100.974C19.5255 100.943 19.5433 100.974 19.522 100.954C19.5008 100.934 19.4937 100.908 19.476 100.879C19.4583 100.85 19.476 100.879 19.4512 100.812C19.4512 100.812 19.4512 100.792 19.4512 100.754C19.483 100.771 19.4795 100.737 19.5078 100.754C19.5362 100.771 19.5078 100.731 19.5078 100.711C19.5078 100.69 19.5397 100.67 19.5858 100.693C19.6318 100.716 19.5858 100.693 19.5858 100.676C19.6389 100.719 19.6283 100.658 19.6885 100.728C19.6946 100.692 19.6946 100.656 19.6885 100.621C19.7274 100.641 19.7451 100.621 19.7451 100.583C19.7762 100.605 19.8036 100.63 19.8266 100.658C19.8266 100.658 19.8443 100.673 19.8549 100.679C19.8656 100.684 19.9187 100.737 19.9399 100.737C19.9612 100.737 19.9647 100.757 19.9931 100.792C20.0214 100.827 20.0108 100.792 20.032 100.824C20.0533 100.856 20.071 100.902 20.0568 100.89C20.0781 100.931 20.0745 100.914 20.0958 100.951C20.0745 100.925 20.0745 100.951 20.0603 100.922C20.0603 100.954 20.0603 100.96 20.032 100.963C20.032 101.012 20.032 101.024 20.0072 101.035C19.9824 101.047 20.0072 101.099 20.0072 101.148C19.9789 101.128 19.9718 101.148 19.9683 101.18C19.9328 101.154 19.9364 101.18 19.8974 101.163C19.8974 101.206 19.8372 101.163 19.8372 101.221C19.7947 101.201 19.8018 101.261 19.7558 101.238C19.7531 101.257 19.7531 101.275 19.7558 101.293C19.7558 101.293 19.7097 101.224 19.7026 101.221L19.6141 101.143Z" fill="#FA9579"/>
<path d="M23.6939 104.198C23.6939 104.149 23.6939 104.198 23.6939 104.143C23.6939 104.088 23.6939 104.05 23.6939 104.016C23.6939 103.981 23.6939 104.016 23.6939 103.989V103.908C23.6993 103.885 23.6993 103.862 23.6939 103.839C23.6976 103.82 23.6976 103.802 23.6939 103.784C23.6939 103.81 23.6939 103.784 23.7152 103.784C23.7179 103.769 23.7179 103.754 23.7152 103.74C23.7152 103.74 23.74 103.717 23.7506 103.74C23.7612 103.763 23.7506 103.74 23.7506 103.74C23.7506 103.798 23.7719 103.74 23.7789 103.824C23.7903 103.792 23.7974 103.759 23.8002 103.726C23.8002 103.757 23.825 103.746 23.8321 103.726C23.8364 103.757 23.8364 103.789 23.8321 103.821C23.8321 103.821 23.8321 103.842 23.8321 103.85C23.8321 103.911 23.8321 103.926 23.8498 103.934C23.8675 103.943 23.8498 103.96 23.8498 104.004C23.8508 104.017 23.8508 104.031 23.8498 104.045C23.8498 104.108 23.8498 104.129 23.8498 104.114V104.198C23.8526 104.185 23.8526 104.171 23.8498 104.158C23.8498 104.187 23.8498 104.187 23.8285 104.184C23.8285 104.233 23.8285 104.236 23.8037 104.239C23.7789 104.242 23.7825 104.291 23.7719 104.337C23.7719 104.308 23.7719 104.337 23.7471 104.337C23.7471 104.3 23.7471 104.337 23.7223 104.294C23.7223 104.332 23.6975 104.279 23.6833 104.323C23.6833 104.291 23.6585 104.349 23.6479 104.308V104.363V104.282C23.6612 104.254 23.6766 104.225 23.6939 104.198Z" fill="#FA9579"/>
<path d="M31.0394 108.756C31.0961 108.799 31.0394 108.947 31.0855 109.002C31.1315 109.057 31.2059 108.941 31.2413 108.976C31.2767 109.011 31.2413 108.881 31.2838 108.892C31.3263 108.904 31.3475 108.878 31.3865 108.892C31.3865 108.959 31.3865 109.057 31.4573 109.069C31.4457 109.147 31.4617 109.227 31.5034 109.298C31.4538 109.504 31.4786 109.687 31.4361 109.907C31.438 109.961 31.4499 110.015 31.4715 110.066C31.429 110.333 31.4467 110.646 31.3723 110.983C31.3597 111.047 31.3597 111.112 31.3723 111.177C31.3347 111.408 31.2803 111.638 31.2094 111.864C31.2143 112.058 31.2368 112.252 31.2767 112.444C31.2201 112.708 31.2022 112.976 31.2236 113.244C31.1986 113.363 31.1483 113.478 31.0748 113.583C31.0635 113.647 31.047 113.71 31.0252 113.772C30.9386 113.916 30.8892 114.074 30.88 114.235C30.8305 114.282 30.834 114.395 30.7773 114.438C30.7595 114.508 30.7371 114.577 30.71 114.644C30.6344 114.599 30.6053 114.518 30.6392 114.447C30.5896 114.447 30.6038 114.494 30.5542 114.479C30.5967 114.444 30.5861 114.351 30.6179 114.308C30.5954 114.128 30.5954 113.946 30.6179 113.766C30.5895 113.534 30.5895 113.301 30.6179 113.07C30.5896 112.806 30.6179 112.505 30.5719 112.247C30.6124 112.055 30.6243 111.86 30.6073 111.667C30.6675 111.472 30.6463 111.258 30.71 111.043C30.6923 110.733 30.7915 110.362 30.7632 110.052C30.8269 109.762 30.788 109.431 30.8623 109.136C30.8519 109.058 30.8353 108.98 30.8127 108.904C30.8127 108.837 30.9119 108.904 30.9225 108.84C30.9576 108.808 30.9968 108.78 31.0394 108.756V108.756Z" fill="#FA9579"/>
<path d="M25.5393 112.515C25.5393 112.465 25.5393 112.515 25.5605 112.459C25.5818 112.404 25.5605 112.367 25.5605 112.332C25.5605 112.297 25.5605 112.332 25.5605 112.306C25.5605 112.28 25.5605 112.254 25.5605 112.222C25.5605 112.19 25.5605 112.222 25.5605 112.152C25.5605 112.152 25.5605 112.152 25.5782 112.097C25.5959 112.123 25.6101 112.097 25.6278 112.097C25.6291 112.083 25.6291 112.068 25.6278 112.054C25.649 112.068 25.6738 112.03 25.7022 112.068C25.7305 112.106 25.7022 112.068 25.7022 112.054C25.7199 112.112 25.7411 112.054 25.7553 112.138C25.7784 112.108 25.7941 112.074 25.8013 112.039C25.8226 112.071 25.8474 112.059 25.8651 112.039C25.8811 112.069 25.8907 112.102 25.8934 112.135C25.8934 112.135 25.8934 112.155 25.8934 112.164C25.8934 112.225 25.9111 112.239 25.9288 112.248C25.9465 112.257 25.9288 112.274 25.9465 112.317C25.9643 112.361 25.9465 112.317 25.9465 112.358C25.9465 112.399 25.9465 112.442 25.9465 112.428V112.497C25.9465 112.465 25.9465 112.477 25.9465 112.457C25.9465 112.486 25.9218 112.486 25.904 112.483C25.8863 112.532 25.8686 112.535 25.8509 112.538C25.8332 112.541 25.8049 112.59 25.7872 112.636C25.7872 112.607 25.7518 112.636 25.7411 112.636C25.7234 112.599 25.7093 112.636 25.6915 112.593C25.6668 112.631 25.6384 112.593 25.6136 112.622C25.5888 112.59 25.564 112.648 25.5393 112.607C25.5393 112.607 25.5393 112.645 25.5215 112.662C25.5038 112.68 25.5215 112.581 25.5215 112.581C25.5215 112.581 25.5428 112.544 25.5393 112.515Z" fill="#FA9579"/>
<path d="M34.1632 110.719C34.2198 110.699 34.1844 110.719 34.234 110.719C34.2836 110.719 34.3332 110.673 34.3686 110.661C34.404 110.65 34.3686 110.661 34.3969 110.644L34.489 110.603C34.5067 110.603 34.489 110.603 34.5705 110.583H34.6413C34.6165 110.606 34.6626 110.603 34.6413 110.626C34.6588 110.63 34.6769 110.63 34.6944 110.626C34.6944 110.653 34.7405 110.655 34.7157 110.693C34.6909 110.731 34.7157 110.693 34.7369 110.693C34.6838 110.734 34.7582 110.725 34.6732 110.774C34.7153 110.781 34.7586 110.781 34.8007 110.774C34.7794 110.806 34.8007 110.821 34.8503 110.818C34.8252 110.845 34.7939 110.867 34.7582 110.885C34.7582 110.885 34.7405 110.902 34.7334 110.911C34.6732 110.948 34.6626 110.96 34.6626 110.977C34.6626 110.995 34.6378 111.001 34.5917 111.024C34.5457 111.047 34.5917 111.024 34.5563 111.056C34.5209 111.087 34.4607 111.087 34.4713 111.073L34.3969 111.108C34.4323 111.09 34.4146 111.09 34.4359 111.076C34.3969 111.076 34.3898 111.076 34.3863 111.056C34.3225 111.056 34.3084 111.056 34.2978 111.035C34.2871 111.015 34.2163 111.035 34.1596 111.035C34.1809 111.009 34.1596 111.003 34.1207 111.003C34.1525 110.974 34.1207 110.974 34.1419 110.945C34.0888 110.945 34.1419 110.893 34.0711 110.893C34.0959 110.861 34.018 110.864 34.0498 110.827H33.979C33.979 110.827 34.0675 110.789 34.0675 110.786L34.1632 110.719Z" fill="#FA9579"/>
<path d="M45.001 114.926C45.0328 114.982 44.916 115.066 44.9372 115.124C44.9585 115.182 45.0683 115.124 45.086 115.161C45.1037 115.199 45.1214 115.092 45.1568 115.118C45.1922 115.144 45.2206 115.132 45.256 115.147C45.2914 115.161 45.1781 115.266 45.256 115.3C45.2152 115.355 45.1978 115.419 45.2064 115.483C45.0789 115.608 45.0328 115.75 44.9124 115.895C44.8972 115.936 44.89 115.979 44.8912 116.022C44.7566 116.202 44.6645 116.449 44.4945 116.666C44.462 116.709 44.4415 116.758 44.4343 116.808C44.282 116.953 44.2501 117.17 44.0801 117.281C44.0346 117.43 44.0085 117.582 44.0022 117.736C43.8864 117.923 43.811 118.125 43.7791 118.333C43.7153 118.414 43.6658 118.524 43.5737 118.568C43.5522 118.616 43.525 118.661 43.4922 118.704C43.3881 118.801 43.3161 118.918 43.2832 119.043C43.223 119.072 43.2124 119.162 43.1522 119.188C43.1272 119.242 43.0964 119.293 43.0601 119.342C43.0278 119.325 43.0051 119.299 42.9971 119.268C42.9891 119.238 42.9965 119.206 43.0176 119.18C42.968 119.159 42.9751 119.209 42.9255 119.18C42.9716 119.159 42.9787 119.084 43.0141 119.052C43.0225 118.906 43.0547 118.762 43.1097 118.623C43.1205 118.434 43.1635 118.248 43.2372 118.069C43.262 117.858 43.3435 117.623 43.3824 117.411C43.4713 117.267 43.5356 117.114 43.5737 116.956C43.687 116.823 43.733 116.649 43.8605 116.504C43.9455 116.257 44.1616 116.005 44.2537 115.764C44.413 115.573 44.5193 115.303 44.707 115.112C44.7325 115.051 44.7515 114.988 44.7637 114.924C44.7885 114.874 44.8558 114.955 44.8841 114.924C44.9231 114.922 44.9622 114.923 45.001 114.926Z" fill="#FA9579"/>
<path d="M44.9902 121.015C44.9902 120.966 45.0185 120.995 45.0114 120.951C45.0043 120.908 44.9689 120.867 44.9618 120.832C44.9547 120.798 44.9618 120.85 44.9335 120.812C44.925 120.785 44.9144 120.759 44.9016 120.734C44.9016 120.714 44.937 120.734 44.9193 120.656C44.9468 120.641 44.962 120.615 44.9583 120.589C45.0149 120.606 45.0539 120.569 45.1177 120.589C45.1333 120.576 45.1443 120.56 45.1495 120.542C45.2239 120.542 45.3089 120.511 45.3939 120.542H45.447C45.5002 120.603 45.5816 120.542 45.61 120.644C45.6666 120.618 45.7233 120.621 45.7835 120.577C45.8406 120.618 45.9183 120.635 45.9925 120.621C45.9925 120.658 46.042 120.679 46.0243 120.74C46.042 120.74 46.042 120.769 46.0527 120.783C46.0527 120.853 46.0527 120.873 46.0987 120.902C46.1447 120.931 46.0987 120.943 46.0987 120.983C46.0987 121.024 46.0987 121.003 46.0987 121.035C46.0987 121.067 46.0243 121.096 46.0172 121.076C45.9854 121.108 46.0172 121.102 45.9747 121.134C45.9925 121.105 45.9747 121.108 45.9747 121.085C45.9392 121.095 45.8998 121.088 45.872 121.067C45.8271 121.084 45.7753 121.084 45.7304 121.067C45.6702 121.093 45.6206 121.088 45.5674 121.125C45.5462 121.09 45.5037 121.105 45.4754 121.125C45.4506 121.085 45.4116 121.125 45.3833 121.073C45.3337 121.108 45.2699 121.056 45.2274 121.105C45.1779 121.076 45.1389 121.14 45.0858 121.105C45.0817 121.125 45.0817 121.146 45.0858 121.166C45.0858 121.166 45.0539 121.09 45.0468 121.09L44.9902 121.015Z" fill="#FA9579"/>
<path d="M36.9294 117.976C36.9294 117.927 36.9754 117.947 36.9683 117.901C36.9613 117.854 36.9046 117.822 36.8975 117.791C36.8904 117.759 36.8763 117.811 36.8585 117.773C36.8454 117.747 36.83 117.722 36.8125 117.698C36.8125 117.677 36.855 117.677 36.8125 117.619C36.8414 117.602 36.8541 117.572 36.8444 117.544C36.9152 117.544 36.9471 117.501 37.0179 117.498C37.0312 117.481 37.0386 117.462 37.0392 117.443C37.1206 117.443 37.1915 117.361 37.2977 117.364C37.319 117.364 37.3402 117.364 37.3438 117.332C37.4358 117.361 37.4819 117.28 37.5775 117.332C37.6246 117.291 37.6607 117.241 37.6838 117.188C37.7683 117.185 37.8468 117.151 37.8963 117.095C37.9423 117.095 37.9883 117.095 38.0379 117.15H38.1052C38.1508 117.185 38.2164 117.196 38.2752 117.179C38.3071 117.208 38.3319 117.179 38.3673 117.222C38.4027 117.266 38.4063 117.222 38.4452 117.24C38.4842 117.257 38.4452 117.327 38.4275 117.321C38.4452 117.361 38.4523 117.341 38.47 117.382C38.4452 117.356 38.4275 117.382 38.4027 117.361C38.3717 117.401 38.3236 117.429 38.2681 117.44C38.2357 117.495 38.1788 117.539 38.1088 117.562C38.0556 117.625 37.9813 117.663 37.9317 117.73C37.8692 117.731 37.8118 117.758 37.7794 117.802C37.705 117.788 37.6625 117.84 37.5846 117.825C37.5208 117.892 37.3898 117.88 37.3296 117.95C37.2375 117.95 37.1702 118.037 37.071 118.031C37.0544 118.054 37.0425 118.078 37.0356 118.104C37.0356 118.104 36.9931 118.031 36.9754 118.034L36.9294 117.976Z" fill="#FA9579"/>
<path d="M13.9862 106.09C14.0145 106.043 14.0924 106.09 14.1243 106.043C14.1562 105.997 14.0995 105.948 14.1243 105.919C14.1491 105.89 14.0712 105.919 14.0818 105.887C14.0924 105.855 14.0818 105.834 14.0818 105.803C14.0818 105.771 14.1739 105.803 14.1845 105.739C14.2341 105.739 14.2872 105.739 14.3156 105.692C14.4254 105.727 14.5281 105.692 14.6485 105.73C14.6818 105.725 14.7125 105.712 14.737 105.692C14.9071 105.699 15.0764 105.715 15.2435 105.742C15.278 105.751 15.3152 105.751 15.3497 105.742C15.4702 105.808 15.626 105.762 15.7039 105.852C15.8162 105.839 15.9259 105.814 16.0298 105.776C16.1736 105.811 16.3257 105.816 16.4725 105.791C16.5327 105.826 16.6141 105.834 16.6531 105.901C16.6893 105.908 16.724 105.92 16.7558 105.936C16.8182 105.996 16.9077 106.033 17.0037 106.037C17.0285 106.075 17.0923 106.069 17.1135 106.113C17.1348 106.156 17.1773 106.13 17.2233 106.162C17.195 106.223 17.1596 106.243 17.11 106.226C17.11 106.266 17.1348 106.252 17.11 106.295C17.0923 106.261 17.0391 106.272 17.0179 106.246C16.9187 106.264 16.816 106.264 16.7168 106.246C16.5926 106.28 16.4608 106.291 16.3308 106.278C16.182 106.31 16.0156 106.307 15.8704 106.345C15.7644 106.317 15.6505 106.317 15.5445 106.345C15.4418 106.301 15.3214 106.324 15.1904 106.281C15.0168 106.304 14.8185 106.237 14.6449 106.281C14.4927 106.237 14.2908 106.281 14.1385 106.232C14.0945 106.244 14.0518 106.26 14.011 106.278C13.972 106.278 14.011 106.197 13.9791 106.194C13.9472 106.191 13.9968 106.119 13.9862 106.09Z" fill="#FA9579"/>
<path d="M57.5169 51.8023C57.4744 51.7617 57.5558 51.7095 57.5169 51.669C57.4779 51.6284 57.3965 51.669 57.3681 51.6313C57.3398 51.5936 57.3681 51.6777 57.315 51.6574C57.2619 51.6371 57.2548 51.6574 57.2194 51.6284C57.184 51.5994 57.2548 51.553 57.1875 51.5211C57.2121 51.483 57.2121 51.4374 57.1875 51.3993C57.2725 51.321 57.2796 51.2283 57.354 51.1384C57.3628 51.1098 57.3628 51.0799 57.354 51.0514C57.42 50.9127 57.4981 50.778 57.5877 50.6484C57.6083 50.6205 57.6182 50.5882 57.616 50.5556C57.7329 50.4744 57.7294 50.3324 57.8675 50.2657C57.881 50.1694 57.881 50.0721 57.8675 49.9758C57.954 49.8663 58.0052 49.7406 58.0163 49.6105C58.0765 49.567 58.1119 49.5003 58.2004 49.4858C58.2178 49.4563 58.2419 49.4297 58.2713 49.4075C58.3603 49.3661 58.4273 49.2988 58.459 49.2191C58.5156 49.2191 58.5227 49.1524 58.5794 49.1466C58.6361 49.1408 58.6183 49.0915 58.6679 49.0625C58.7352 49.1002 58.7458 49.135 58.7104 49.1727C58.76 49.193 58.7529 49.1727 58.799 49.1727C58.7565 49.1727 58.7529 49.2278 58.7175 49.2423C58.714 49.3315 58.6887 49.4192 58.6431 49.5003C58.6439 49.6176 58.6162 49.7339 58.5617 49.8424C58.5617 49.9787 58.5015 50.1323 58.4979 50.2541C58.428 50.3405 58.3877 50.4406 58.381 50.544C58.2925 50.6194 58.2819 50.7296 58.1863 50.8137C58.1544 50.9702 58.0056 51.121 57.9808 51.2747C57.8746 51.3906 57.8533 51.5646 57.7329 51.6863C57.7259 51.7277 57.7259 51.7697 57.7329 51.811C57.7329 51.8429 57.6373 51.782 57.6196 51.811C57.5851 51.8106 57.5507 51.8077 57.5169 51.8023Z" fill="#FFE9D6"/>
<path d="M55.7994 59.7138C55.7498 59.679 55.8241 59.6326 55.7994 59.5978C55.7746 59.563 55.6825 59.5978 55.6506 59.5601C55.6187 59.5225 55.6506 59.6036 55.601 59.5862C55.5514 59.5688 55.5408 59.5717 55.5054 59.5601C55.47 59.5485 55.5337 59.4906 55.4629 59.4616C55.4856 59.4272 55.4856 59.3858 55.4629 59.3514C55.5337 59.2789 55.5373 59.1919 55.6081 59.1137C55.617 59.0871 55.617 59.059 55.6081 59.0325C55.6682 58.9071 55.743 58.7867 55.8312 58.673C55.8519 58.6494 55.8619 58.6207 55.8596 58.5918C55.9764 58.5251 55.9764 58.3917 56.1146 58.354C56.1382 58.2665 56.1477 58.1769 56.1429 58.0873C56.2365 57.9967 56.2999 57.8878 56.3271 57.7713C56.3873 57.7365 56.4298 57.6814 56.5183 57.6814C56.536 57.6524 56.5714 57.6408 56.5962 57.6205C56.6861 57.601 56.7618 57.5516 56.8052 57.4843C56.8583 57.4843 56.876 57.435 56.9327 57.4379C56.9894 57.4408 56.9787 57.3973 57.0319 57.3799C57.0885 57.4234 57.0956 57.4582 57.0567 57.4872C57.0992 57.5104 57.0956 57.4872 57.1381 57.5075C57.0956 57.5075 57.085 57.5451 57.0496 57.5509C57.0345 57.629 56.9982 57.7033 56.9433 57.7684C56.9339 57.8706 56.8964 57.9697 56.8335 58.0583C56.8158 58.1772 56.7521 58.2961 56.745 58.4149C56.6734 58.4789 56.6298 58.5604 56.621 58.6469C56.536 58.7049 56.5219 58.8005 56.4333 58.8672C56.405 59.0035 56.2633 59.1253 56.2491 59.2644C56.1535 59.3601 56.1464 59.5167 56.0402 59.6181C56.0408 59.6553 56.0468 59.6923 56.0579 59.7283C56.0579 59.7573 55.9623 59.7022 55.9481 59.7283L55.7994 59.7138Z" fill="#FFE9D6"/>
<path d="M56.0118 61.6755C55.9905 61.6262 56.0437 61.6465 56.0118 61.603C55.9799 61.5595 55.941 61.5276 55.9303 61.4986C55.9197 61.4696 55.9303 61.516 55.8985 61.4812C55.8666 61.4464 55.863 61.4377 55.8453 61.4087C55.8276 61.3798 55.8666 61.3913 55.8453 61.3363C55.86 61.3167 55.86 61.292 55.8453 61.2725C55.8949 61.2725 55.8949 61.2377 55.941 61.2348C55.9449 61.2195 55.9449 61.2037 55.941 61.1884C55.9905 61.1884 55.9976 61.1217 56.0685 61.1188C56.0685 61.1188 56.0862 61.1188 56.0685 61.0898C56.1464 61.1072 56.1251 61.0405 56.2243 61.0724C56.2267 61.0299 56.2145 60.9877 56.1889 60.9507C56.2134 60.9449 56.2336 60.9307 56.2445 60.9119C56.2553 60.893 56.2557 60.8712 56.2456 60.8521C56.2845 60.8521 56.3022 60.8376 56.3766 60.8521H56.4226C56.5041 60.8521 56.5253 60.8521 56.5537 60.8202C56.582 60.7883 56.5962 60.8202 56.6458 60.8202C56.6953 60.8202 56.667 60.8202 56.7095 60.8028C56.752 60.7854 56.7981 60.8492 56.7733 60.8579C56.8229 60.8753 56.8087 60.8579 56.8583 60.8782C56.8158 60.8782 56.8229 60.8782 56.7945 60.8782C56.81 60.9123 56.8033 60.9505 56.7768 60.9797C56.8058 61.0251 56.8058 61.0792 56.7768 61.1246C56.7768 61.1884 56.7591 61.2435 56.7768 61.3131C56.7267 61.3315 56.6947 61.3725 56.6953 61.4174C56.6281 61.4174 56.621 61.4783 56.5501 61.4812C56.5253 61.5537 56.4156 61.5653 56.3872 61.6378C56.3093 61.6378 56.2774 61.7335 56.1853 61.7335C56.1814 61.7565 56.1814 61.78 56.1853 61.803C56.1853 61.8175 56.1322 61.7364 56.1181 61.7393L56.0118 61.6755Z" fill="#FFE9D6"/>
<path d="M61.1367 55.2907C61.0871 55.2588 61.1367 55.2269 61.1119 55.1921C61.0871 55.1573 60.9985 55.1776 60.9667 55.1544C60.9348 55.1312 60.9667 55.1892 60.9206 55.1718C60.8899 55.1605 60.8579 55.1518 60.825 55.1457C60.825 55.1167 60.8462 55.0877 60.7754 55.0616C60.7894 55.0289 60.7813 54.9926 60.7542 54.966C60.8179 54.908 60.8179 54.8355 60.8817 54.7717C60.8826 54.7477 60.8765 54.7238 60.8639 54.7021C60.9178 54.599 60.9868 54.5017 61.0694 54.4122C61.0876 54.3933 61.0964 54.3695 61.0942 54.3455C61.2075 54.302 61.2039 54.1861 61.3385 54.1716C61.3618 54.0977 61.3725 54.0216 61.3704 53.9454C61.4629 53.8807 61.5275 53.7932 61.5546 53.6961C61.6148 53.6787 61.6608 53.6381 61.7423 53.6526C61.7653 53.6363 61.7917 53.6235 61.8202 53.6149C61.9 53.6141 61.9752 53.5844 62.0256 53.5337C62.0752 53.5337 62.0929 53.5047 62.146 53.5192C62.1992 53.5337 62.1921 53.4931 62.2417 53.4902C62.2912 53.5395 62.2948 53.5685 62.2417 53.583C62.2806 53.6149 62.2806 53.583 62.3196 53.6178C62.2771 53.6178 62.2665 53.641 62.2346 53.6381C62.2153 53.6996 62.1761 53.7556 62.1212 53.8005C62.1082 53.8826 62.0691 53.9606 62.0079 54.0266C61.9902 54.1223 61.93 54.2122 61.9194 54.3165C61.8547 54.3594 61.8148 54.4225 61.8096 54.4905C61.7281 54.5282 61.721 54.6065 61.636 54.6528C61.6148 54.7601 61.4873 54.8471 61.4802 54.9573C61.3917 55.0269 61.3987 55.1544 61.3067 55.2298C61.3115 55.2613 61.3198 55.2923 61.3314 55.3226C61.3314 55.3458 61.2394 55.2936 61.2287 55.3226L61.1367 55.2907Z" fill="#FFE9D6"/>
<path d="M62.2558 55.9247C62.2027 55.8986 62.2558 55.8783 62.2169 55.8522C62.1779 55.8261 62.1035 55.8348 62.0716 55.8174C62.0398 55.8 62.0716 55.8435 62.0291 55.8174C61.9968 55.8078 61.9637 55.8 61.93 55.7942C61.93 55.771 61.93 55.7507 61.8733 55.7275C61.8801 55.6981 61.8664 55.668 61.8379 55.6493C61.8946 55.6058 61.8839 55.5478 61.9371 55.5014C61.9365 55.4809 61.9292 55.4608 61.9158 55.4434C61.9725 55.3825 61.9902 55.284 62.0894 55.226C62.1073 55.2129 62.1154 55.193 62.1106 55.1738C62.2133 55.1535 62.2133 55.0607 62.3337 55.0694C62.3557 55.0102 62.3665 54.9486 62.3656 54.8868C62.4515 54.8512 62.5174 54.7899 62.5498 54.7157C62.6029 54.7157 62.6454 54.6896 62.7162 54.7157C62.7395 54.7113 62.7638 54.7113 62.7871 54.7157C62.8446 54.741 62.9137 54.741 62.9712 54.7157C63.0102 54.7389 63.0314 54.7157 63.0739 54.7418C63.1164 54.7679 63.1129 54.7418 63.1554 54.7418C63.1873 54.7998 63.1873 54.8259 63.1554 54.8259C63.1837 54.8636 63.1873 54.8433 63.2121 54.8781C63.1802 54.8578 63.1696 54.8781 63.1412 54.8781C63.1235 54.9204 63.0868 54.9556 63.0385 54.9766C63.0277 55.0346 62.9912 55.0873 62.9358 55.1245C62.9085 55.19 62.886 55.2568 62.8685 55.3245C62.8083 55.3245 62.7906 55.3912 62.7835 55.4318C62.7162 55.4463 62.7127 55.5014 62.6419 55.5217C62.6419 55.5971 62.5285 55.6406 62.5356 55.7217C62.4648 55.7623 62.4931 55.8551 62.4187 55.8986C62.4187 55.9218 62.4471 55.9421 62.4612 55.9653C62.4754 55.9885 62.3691 55.9392 62.3585 55.9508L62.2558 55.9247Z" fill="#FFE9D6"/>
<path d="M151.273 15.0498C141.307 16.5124 133.79 23.6892 129.62 32.56C125.613 41.077 126.776 54.383 117.885 59.8388C116.246 60.8388 114.28 61.5191 113.225 63.1245C110.858 66.7299 114.872 71.1177 118.613 73.2605C131.538 80.6823 146.457 83.8864 161.062 86.9884C164.042 87.621 167.151 88.2537 170.11 87.519C173.069 86.7843 175.81 84.2401 175.708 81.1925C175.661 79.7163 174.974 78.3422 174.531 76.9272C172.525 70.4918 175.892 64.4102 177.933 58.4715C182.184 46.1722 184.504 25.6076 169.191 19.8933C172.94 17.8525 171.593 11.2607 167.525 9.9818C163.457 8.7029 158.98 11.8866 157.674 15.941" fill="#FA9579"/>
<path d="M169.184 19.8912C172.933 17.8504 171.586 11.2585 167.518 9.97964C167.295 9.90807 167.068 9.85126 166.837 9.80957L166.776 9.85039C165.592 10.8504 165.939 12.7075 166.143 14.2517C166.348 15.7959 165.837 17.8708 164.28 17.9252C163.625 17.862 162.998 17.6274 162.463 17.2449C160.672 16.2823 158.614 15.9357 156.606 16.2585L155.007 15.5783H154.769C159.973 18.6531 161.388 26.7347 157.402 31.3265C155.953 32.9932 154.001 34.1564 152.395 35.653C147.272 40.5766 145.921 48.2485 149.055 54.6258C150.851 58.0815 153.885 60.8434 155.28 64.4761C152.926 65.8366 150.007 64.5645 147.456 63.6325C139.426 60.7419 130.548 61.3743 123.008 65.374C121.116 66.3944 119.15 67.9182 118.987 70.0611C118.837 71.9931 120.198 73.6121 121.674 74.9454C133.919 81.2107 147.592 84.1631 161.069 87.027C164.048 87.6597 167.157 88.2923 170.116 87.5577C173.075 86.823 175.817 84.2787 175.715 81.2311C175.667 79.755 174.98 78.3808 174.538 76.9658C172.531 70.5305 175.899 64.4489 177.939 58.5101C182.177 46.17 184.497 25.585 169.184 19.8912Z" fill="#FA9579"/>
<path d="M151.219 14.7024C150.81 14.8112 150.123 14.9473 149.3 15.1174C148.477 15.2874 147.538 15.5663 146.613 15.9201C146.151 16.0699 145.696 16.2448 145.253 16.4439C144.81 16.6412 144.368 16.8112 143.981 17.0153C143.337 17.3238 142.715 17.6737 142.117 18.0629C141.756 18.3827 142.341 18.0629 142.912 17.8112C143.484 17.5595 144.021 17.335 143.47 17.6548C143.361 17.7772 144.151 17.2942 145.042 16.9745C145.549 16.7042 146.092 16.505 146.654 16.3827C146.219 16.6344 147.334 16.267 147.334 16.3418C146.715 16.5663 146.008 16.7908 145.341 17.1038C145.001 17.2534 144.661 17.3963 144.334 17.5527L143.402 18.0357C142.895 18.3003 142.404 18.5957 141.933 18.9201C141.694 19.0522 141.476 19.2196 141.287 19.4167C139.895 20.3521 138.586 21.4059 137.375 22.5663C136.831 23.1173 136.327 23.6275 135.906 24.1105C135.484 24.5935 135.137 25.0357 134.865 25.3962C133.611 26.9034 132.491 28.5172 131.518 30.2194C131.028 31.0561 130.606 31.9132 130.157 32.7772C129.764 33.645 129.417 34.5329 129.117 35.437C127.885 39.0901 127.28 43.0629 126.164 47.3554C125.668 49.4075 125.013 51.418 124.205 53.369C123.03 56.0514 121.149 58.3648 118.763 60.0628C117.518 60.9948 116.042 61.5118 114.974 62.3281C114.423 62.6994 113.969 63.196 113.647 63.7771C113.319 64.3336 113.165 64.9757 113.205 65.6206C113.359 67.0337 113.968 68.3586 114.94 69.3961C115.932 70.5547 117.095 71.555 118.389 72.3621C121.158 73.9765 124.017 75.4302 126.953 76.7158C129.525 77.8519 132.185 78.7907 134.008 79.4029C138.537 80.9751 143.144 82.3125 147.81 83.4097C152.463 84.5457 156.953 85.5185 160.647 86.4097C162.525 86.8431 164.433 87.1365 166.355 87.2872C168.233 87.455 170.119 87.0871 171.797 86.226C173.364 85.4117 174.511 83.97 174.953 82.26C175.3 80.6682 174.525 79.1308 173.96 77.5662C173.518 76.2081 173.264 74.7959 173.205 73.3689C173.175 71.9152 173.317 70.463 173.627 69.0424C174.292 66.2727 175.179 63.561 176.28 60.9336C178.106 56.3079 179.336 51.4685 179.94 46.5322C180.287 44.0858 180.433 41.6149 180.375 39.1445C180.32 37.0882 180.093 35.0402 179.695 33.0221C179.15 30.6119 178.168 28.3223 176.797 26.267C175.888 24.8952 174.765 23.6779 173.47 22.6616C172.136 21.6247 170.655 20.7924 169.076 20.1922L168.463 19.9541L169.035 19.6548C170.08 19.0639 170.804 18.035 171.008 16.8521C171.127 16.161 171.127 15.4546 171.008 14.7636C170.86 13.9958 170.592 13.2564 170.212 12.5732C169.573 11.3648 168.467 10.472 167.151 10.1038C165.856 9.77924 164.496 9.83355 163.232 10.2602C162.482 10.5232 161.773 10.8945 161.13 11.3623C160.621 11.7269 160.147 12.1392 159.715 12.5936C158.814 13.5661 158.119 14.7117 157.674 15.9609C157.91 14.9971 158.328 14.0873 158.906 13.2806C159.823 11.9827 161.067 10.9501 162.511 10.2874C162.736 10.1446 162.266 10.2874 161.831 10.5391C161.395 10.7908 160.994 11.0425 161.185 10.8453C162.138 10.2428 163.19 9.81436 164.293 9.57996C165.542 9.33167 166.836 9.46439 168.008 9.96092C170.837 11.3453 172.269 14.5567 171.409 17.5867C171.075 18.6821 170.322 19.6012 169.314 20.1446L169.28 19.6139C172.334 20.7207 175.011 22.6716 177.001 25.2398C178.385 27.051 179.446 29.0878 180.137 31.2602C180.81 33.4312 181.23 35.6729 181.389 37.9404C181.669 42.7101 181.252 47.4952 180.15 52.1445C179.584 54.7764 178.84 57.3673 177.926 59.8995C176.987 62.4778 175.926 65.0424 175.205 67.675C174.433 70.2355 174.284 72.9432 174.77 75.573C174.919 76.2039 175.103 76.8261 175.321 77.4369C175.545 78.056 175.797 78.6818 176.001 79.3485C176.468 80.7266 176.432 82.2257 175.899 83.5798C174.986 85.5018 173.365 86.9962 171.375 87.7498C169.349 88.451 167.182 88.6494 165.062 88.328C162.974 88.0831 160.98 87.607 159.083 87.226L153.64 86.0831C146.042 84.3008 137.749 82.3553 129.695 79.124C126.672 77.9816 123.719 76.6619 120.851 75.1716L118.634 73.9675C117.873 73.5497 117.145 73.0744 116.457 72.5458C115.752 72.0189 115.096 71.4292 114.498 70.7839C113.872 70.1427 113.331 69.425 112.885 68.6478C112.402 67.8492 112.087 66.9603 111.96 66.0356C111.846 65.0728 112.027 64.0981 112.477 63.2397C112.915 62.4141 113.554 61.7122 114.334 61.1989C115.046 60.7278 115.784 60.2985 116.545 59.9132C116.906 59.7159 117.226 59.5254 117.586 59.3213L118.532 58.641L119.001 58.3009C119.157 58.1785 119.287 58.0356 119.423 57.9064L120.253 57.1104C121.253 55.9908 122.092 54.7359 122.742 53.3826C123.973 50.7804 124.887 48.0396 125.464 45.2193C126.144 42.2874 126.715 39.2125 127.613 36.1581C127.831 35.3962 128.103 34.6411 128.368 33.886C128.634 33.1309 128.967 32.3758 129.341 31.6819C130.038 30.2495 130.827 28.8634 131.702 27.5323C133.421 24.9321 135.498 22.5871 137.872 20.5663C140.201 18.5572 142.834 16.9314 145.674 15.75C146.974 15.2942 147.137 15.2942 147.232 15.3078C147.327 15.3214 147.361 15.3555 148.436 15.0902C149.354 14.9016 150.284 14.7721 151.219 14.7024Z" fill="#454367"/>
<path d="M125.777 69.2401C126.238 68.9232 126.727 68.6499 127.239 68.4238C127.341 68.2061 126.722 68.3898 126.906 68.2333C126.906 68.1245 126.287 68.519 126.307 68.417C126.328 68.315 126.137 68.3626 126.11 68.2945C126.532 68.036 127.232 67.8184 127.239 67.6619C127.858 67.4306 128.504 67.2809 128.831 67.1177C130.295 66.8844 131.779 66.8023 133.26 66.8728C133.668 66.8728 134.096 66.8728 134.396 66.8184C136.592 66.9284 138.781 67.1555 140.953 67.4986C141.403 67.5853 141.858 67.6489 142.314 67.6891C143.124 67.8796 144.008 68.0837 144.858 68.2537C145.636 68.4241 146.4 68.6515 147.144 68.934C147.824 69.0905 148.504 69.2469 149.219 69.4306C149.933 69.6143 150.579 69.7911 151.151 69.9272C152.953 70.6075 155.055 71.5462 156.464 72.1857C157.184 72.6044 157.867 73.0846 158.504 73.6211C158.96 73.9136 159.26 74.1517 159.634 74.417C160.008 74.6823 160.375 75.0973 160.777 75.4102L161.457 75.9204L162.239 76.6006C162.457 76.9 163.096 77.3898 163.253 77.6959C163.708 78.1993 163.879 78.3217 164.266 78.7843C163.834 78.6168 163.453 78.3375 163.164 77.9748C163.035 77.9748 163.368 78.2537 163.232 78.2605C162.978 77.9414 162.698 77.6433 162.396 77.3694C161.953 77.0564 161.484 76.6891 160.974 76.2809L159.348 75.1177C157.947 74.3422 156.627 73.5598 155.042 72.8047C154.212 72.4238 153.28 72.1245 152.375 71.7299C151.47 71.3354 150.532 71.0905 149.654 70.8796C149.001 70.625 148.333 70.4115 147.654 70.2401C146.974 70.0496 146.294 69.9 145.661 69.7911C144.978 69.5796 144.283 69.4115 143.579 69.2877C142.899 69.1245 142.117 69.0088 141.375 68.8388C139.078 68.4946 136.764 68.2675 134.443 68.1585C132.336 67.9581 130.211 68.0866 128.144 68.5394C127.67 68.7002 127.214 68.9099 126.783 69.1653C126.389 69.3694 126.607 69.0292 126.28 69.1653C126.114 69.2028 125.946 69.2278 125.777 69.2401H125.777Z" fill="#454367"/>
<path d="M145.191 69.3428C145.239 69.6013 144.906 70.37 144.919 70.6625C145.035 70.8326 145.239 70.3768 145.26 70.5673C145.334 70.6353 145.389 70.0571 145.464 70.1251C145.538 70.1931 145.606 70.0707 145.681 70.1251C145.606 70.4856 145.416 71.0026 145.552 71.0843C145.417 71.4823 145.335 71.8962 145.307 72.3156C144.906 73.3768 144.681 74.3564 144.28 75.5128C144.205 75.7921 144.151 76.0762 144.117 76.3632C143.64 77.7713 143.198 79.506 142.572 81.2067C142.458 81.5404 142.364 81.8813 142.294 82.2271C141.783 83.4108 141.47 84.8801 140.967 85.8325C140.906 86.091 140.838 86.3563 140.77 86.6216C140.736 86.7577 140.709 86.8801 140.661 87.0502C140.597 87.2701 140.48 87.4709 140.321 87.6352C140.134 87.814 139.896 87.9304 139.64 87.9686C139.473 87.977 139.305 87.977 139.137 87.9686C138.965 87.9638 138.795 88.0012 138.64 88.0774C138.085 88.2102 137.63 88.6067 137.423 89.1386C137.227 89.5792 137.26 90.0876 137.511 90.4992C137.734 90.9424 138.058 91.327 138.457 91.6216C138.723 91.7511 139.008 91.8405 139.3 91.8869C139.625 91.9789 139.969 91.9789 140.294 91.8869C140.707 91.7484 141.076 91.5018 141.362 91.1727C141.613 91.0502 141.885 90.5264 142.042 90.3291C142.192 89.9815 142.284 89.6114 142.314 89.2339C142.5 89.5728 142.5 89.9834 142.314 90.3223C142.389 90.4312 142.45 90.0706 142.525 90.1727C142.39 90.4935 142.221 90.799 142.021 91.0842C141.779 91.5329 141.428 91.914 141.001 92.1931C140.507 92.5057 139.932 92.6665 139.348 92.6556C138.647 92.6915 137.954 92.4902 137.382 92.0842C136.738 91.6486 136.303 90.9669 136.178 90.1999C136.026 89.2992 136.291 88.3781 136.899 87.6965C137.208 87.34 137.594 87.0585 138.028 86.8733C138.247 86.7863 138.475 86.7246 138.709 86.6897C138.919 86.6742 139.131 86.6742 139.341 86.6897H139.518C139.518 86.6897 139.477 86.7373 139.518 86.6897C139.609 86.4862 139.68 86.2743 139.729 86.057C139.892 85.5128 140.035 84.9754 140.151 84.506C140.552 83.4992 140.831 82.3495 141.266 81.2339C141.695 79.574 142.423 77.6421 142.831 75.9958C143.362 74.5332 143.79 72.7033 144.368 71.1523C144.484 70.7033 144.532 70.3292 144.613 69.9278C144.695 69.5264 144.817 69.9278 144.913 69.6149C144.994 69.5264 145.096 69.438 145.191 69.3428V69.3428Z" fill="#454367"/>
<path d="M151.219 13.9345C151.334 13.9345 151.259 13.9754 151.361 13.9345C151.464 13.8937 151.566 13.8529 151.64 13.8393C151.715 13.8257 151.64 13.8393 151.695 13.7985C151.76 13.7802 151.823 13.7575 151.885 13.7305C151.926 13.7305 151.885 13.7781 152.055 13.7305C152.093 13.7673 152.148 13.7804 152.198 13.7645C152.157 13.8461 152.246 13.8869 152.198 13.9618C152.232 13.9801 152.269 13.9917 152.307 13.9958C152.307 14.0842 152.395 14.1794 152.307 14.2951C152.219 14.4107 152.307 14.3427 152.348 14.3563C152.225 14.4448 152.348 14.5196 152.185 14.6012C152.266 14.6556 152.293 14.7237 152.423 14.7713C152.365 14.8568 152.383 14.9725 152.464 15.0366C152.4 15.0967 152.319 15.1349 152.232 15.1454C152.232 15.1454 152.191 15.1862 152.164 15.2067C152.021 15.2475 151.987 15.2747 151.96 15.3359C151.933 15.3971 151.892 15.3835 151.797 15.3903C151.702 15.3971 151.763 15.4243 151.695 15.4379C151.627 15.4516 151.498 15.3903 151.532 15.3699C151.436 15.3699 151.47 15.3699 151.368 15.3699H151.47C151.42 15.3385 151.398 15.2767 151.416 15.2203C151.342 15.1914 151.292 15.1224 151.287 15.0434C151.191 14.9754 151.164 14.9005 151.049 14.8461C151.117 14.7985 151.049 14.7441 151.008 14.7101C151.089 14.6556 151.008 14.6148 151.083 14.5536C150.987 14.4924 151.083 14.3767 150.981 14.3291C151.035 14.2475 150.885 14.1999 150.981 14.1046H150.844C150.844 14.1046 151.021 14.0502 151.021 14.0366L151.219 13.9345Z" fill="#454367"/>
<path d="M154.627 13.8104C154.743 13.8104 154.627 13.858 154.749 13.8784C154.872 13.8988 154.967 13.8784 155.042 13.8784C155.117 13.8784 155.042 13.8784 155.11 13.8784H155.307C155.307 13.8784 155.307 13.9193 155.464 13.9397C155.464 13.9397 155.464 13.9805 155.593 14.0009C155.525 14.0349 155.593 14.0825 155.545 14.1301C155.574 14.15 155.606 14.1639 155.64 14.171C155.6 14.2322 155.681 14.307 155.586 14.375C155.491 14.4431 155.586 14.375 155.586 14.4159C155.443 14.4567 155.586 14.5315 155.375 14.5519C155.45 14.5995 155.464 14.6539 155.593 14.7016C155.511 14.7492 155.538 14.824 155.593 14.8784C155.518 14.9117 155.437 14.9302 155.355 14.9329C155.355 14.9329 155.307 14.9329 155.287 14.9669C155.137 14.9669 155.103 15.0077 155.083 15.0485C155.062 15.0893 155.015 15.0485 154.913 15.0485C154.811 15.0485 154.913 15.0485 154.811 15.0825C154.709 15.1165 154.62 15.0417 154.654 15.0213C154.552 15.0213 154.593 15.0213 154.491 15.0213H154.593C154.543 14.9995 154.519 14.9427 154.538 14.892C154.436 14.8308 154.43 14.7832 154.423 14.7288C154.416 14.6744 154.314 14.5927 154.219 14.5247C154.287 14.5247 154.219 14.4363 154.219 14.3954C154.307 14.3614 154.219 14.307 154.328 14.2662C154.246 14.1914 154.382 14.1233 154.287 14.0417C154.368 13.9873 154.239 13.8988 154.341 13.8444C154.299 13.8214 154.256 13.801 154.212 13.7832C154.212 13.7832 154.402 13.7832 154.409 13.7832L154.627 13.8104Z" fill="#454367"/>
<path d="M116.797 32.4824C116.756 32.2851 116.831 31.5912 116.797 31.3531C116.729 31.2375 116.654 31.6525 116.633 31.496C116.586 31.4552 116.633 31.945 116.565 31.9042C116.497 31.8633 116.497 31.979 116.463 31.979C116.463 31.6593 116.531 31.1967 116.463 31.1491C116.497 30.7273 116.572 30.3055 116.559 30.081C116.749 29.1357 117.001 28.204 117.314 27.2919C117.395 27.0402 117.484 26.7749 117.525 26.5776C118.055 25.2207 118.718 23.9196 119.504 22.6933C119.681 22.4076 119.872 22.1287 119.98 21.9178C120.6 21.0186 121.282 20.1639 122.021 19.36C122.572 18.6457 123.259 17.877 123.749 17.2851L126.47 14.6729C126.885 14.3202 127.318 13.9909 127.769 13.6865C128.042 13.462 128.239 13.3192 128.45 13.1355C129.035 12.7409 129.416 12.4552 130.205 11.8158C130.416 11.7001 130.817 11.36 131.014 11.2648C131.375 11.0063 131.477 10.911 131.803 10.6865C131.636 10.9369 131.418 11.15 131.164 11.3124C131.164 11.394 131.354 11.1967 131.341 11.3124C131.191 11.3804 130.865 11.6661 130.661 11.7818C130.13 12.2579 129.436 12.8226 128.742 13.4076L126.334 15.5777C125.47 16.4348 124.477 17.4144 123.701 18.2987C123.063 18.949 122.47 19.6422 121.926 20.3736C121.309 21.1154 120.732 21.8898 120.198 22.6933C119.386 23.9839 118.703 25.351 118.157 26.7749C117.643 28.0923 117.269 29.4605 117.042 30.8565C117.042 31.2443 116.994 31.5368 116.994 31.8905C116.994 32.2443 116.899 31.9518 116.878 32.2035C116.878 32.2919 116.838 32.3871 116.797 32.4824Z" fill="#454367"/>
<path d="M105.232 25.2426C105.232 25.1201 105.409 24.7732 105.416 24.6303C105.423 24.4875 105.246 24.7528 105.246 24.6303C105.246 24.5079 105.157 24.8684 105.123 24.8276C105.089 24.7868 105.055 24.8276 105.014 24.8276C105.069 24.6575 105.178 24.4194 105.116 24.3718C105.201 24.1877 105.26 23.9933 105.293 23.7936C105.538 23.3038 105.715 22.8548 105.974 22.331C106.028 22.202 106.075 22.0703 106.116 21.9364C106.443 21.297 106.797 20.5215 107.28 19.78C107.371 19.6359 107.453 19.4859 107.525 19.331C107.848 18.8041 108.2 18.2954 108.579 17.8072C108.817 17.3582 109.144 16.8752 109.334 16.4807C109.776 15.9161 110.266 15.229 110.586 14.7528C110.791 14.5157 111.019 14.2993 111.266 14.1065C111.395 13.9501 111.497 13.8548 111.613 13.7324C111.932 13.4633 112.23 13.1699 112.504 12.8548C112.62 12.78 112.817 12.5555 112.933 12.5011C113.123 12.331 113.164 12.263 113.341 12.127C113.297 12.2964 113.199 12.4469 113.062 12.5555C113.062 12.6099 113.171 12.4807 113.184 12.5555C113.089 12.5963 112.94 12.7868 112.838 12.8548C112.599 13.1882 112.259 13.5351 111.933 13.9501C111.593 14.4467 111.252 14.8957 110.844 15.4195C110.436 15.9433 110.008 16.6371 109.674 17.2222C109.364 17.6341 109.084 18.0684 108.838 18.5215C108.525 18.9365 108.266 19.4331 107.946 19.882C107.579 20.6099 107.055 21.4399 106.749 22.1881C106.375 22.8276 106.069 23.6711 105.715 24.3718C105.647 24.5759 105.606 24.7528 105.552 24.9432C105.497 25.1337 105.45 24.9432 105.389 25.0725C105.344 25.1359 105.292 25.1931 105.232 25.2426Z" fill="#454367"/>
<path d="M161.218 17.7557C161.254 17.7619 161.291 17.7619 161.327 17.7557C161.327 17.7557 161.293 17.7557 161.327 17.7557C161.361 17.7557 161.286 17.7557 161.286 17.7557C161.286 17.7557 161.348 17.7149 161.348 17.6945C161.38 17.6727 161.407 17.645 161.429 17.6128C161.512 17.553 161.598 17.4984 161.688 17.4496C161.688 17.4496 161.735 17.4156 161.749 17.3884C161.878 17.3113 162.022 17.2605 162.171 17.2387C162.203 17.236 162.233 17.2242 162.259 17.2047C162.382 17.2455 162.504 17.1571 162.606 17.2523C162.7 17.2208 162.791 17.1821 162.878 17.1367C163.004 17.1749 163.134 17.1955 163.266 17.1979C163.32 17.2387 163.395 17.2591 163.429 17.3203L163.511 17.3679C163.571 17.4221 163.643 17.4617 163.722 17.4836L163.817 17.5244H163.905H163.817H163.735C163.652 17.5318 163.567 17.5318 163.484 17.5244C163.383 17.5622 163.278 17.5873 163.171 17.5992C163.047 17.6408 162.927 17.6908 162.81 17.7489C162.724 17.7314 162.635 17.7459 162.558 17.7897C162.47 17.7557 162.382 17.7897 162.279 17.7897C162.177 17.7897 161.973 17.7897 161.844 17.7897C161.698 17.7856 161.553 17.772 161.409 17.7489C161.37 17.7556 161.331 17.7556 161.293 17.7489H161.259L161.218 17.7557Z" fill="#454367"/>
<path d="M164.307 22.4424C164.559 22.8437 165.327 24.3812 165.545 24.905C165.674 25.1431 165.252 24.2247 165.409 24.5376C165.456 24.6124 164.939 23.5648 164.973 23.6465C165.008 23.7281 164.885 23.4696 164.892 23.4696C165.259 24.1499 165.729 25.1635 165.769 25.2383C166.191 26.1635 166.531 27.1294 166.715 27.626C167.071 28.7057 167.344 29.8109 167.531 30.9322C167.733 32.1152 167.7 33.3262 167.436 34.4968C167.289 35.0987 167.045 35.673 166.715 36.1974C166.219 36.8888 165.534 37.4226 164.742 37.7349C163.918 38.0365 163.069 38.2641 162.205 38.4151C160.454 38.7489 158.828 39.5559 157.504 40.7484C156.982 41.219 156.525 41.7566 156.144 42.3471C155.772 42.8831 155.479 43.4695 155.273 44.0886C155.098 44.7079 155.015 45.3498 155.028 45.9933C155.067 47.2068 155.369 48.3974 155.912 49.4831C157.023 51.3197 158.464 52.9343 160.164 54.245C161.3 55.2382 162.599 56.2858 163.749 57.4151C164.824 58.4162 165.742 59.5745 166.47 60.8504C166.807 61.5085 167.063 62.2052 167.232 62.9253C167.365 63.5303 167.399 64.1528 167.334 64.7688C167.296 65.5214 167.062 66.2509 166.654 66.8844C166.152 67.5114 165.56 68.0614 164.899 68.5171C164.59 68.8112 164.357 69.1752 164.218 69.5783C164.052 70.0886 164.031 70.6349 164.157 71.1565C164.235 71.5477 164.363 71.9272 164.538 72.2858C164.703 72.6349 164.889 72.9735 165.096 73.2994C165.534 73.9568 166.033 74.5717 166.586 75.1361C166.09 74.6187 165.635 74.0638 165.225 73.4762C165.13 73.3606 165.538 73.9184 165.45 73.8028C165.05 73.2774 164.71 72.7093 164.436 72.1089C163.971 71.2387 163.902 70.2106 164.246 69.2858C164.476 68.7934 164.83 68.3692 165.273 68.0545C165.715 67.743 166.105 67.3643 166.429 66.932C167.078 65.8461 167.275 64.5496 166.98 63.3198C166.679 62.0231 166.096 60.8086 165.273 59.762C163.491 57.4219 160.627 55.5307 158.47 53.5443C157.642 52.7419 156.886 51.8677 156.212 50.9321C155.541 50.0079 155.031 48.9777 154.701 47.8845C154.402 46.7059 154.402 45.4712 154.701 44.2927C155.021 43.0676 155.643 41.9425 156.511 41.0206C157.804 39.5627 159.502 38.5231 161.388 38.0342C162.348 37.7825 163.314 37.694 164.184 37.4287C165.027 37.219 165.779 36.7416 166.327 36.0682C167.314 34.8913 167.531 33.041 167.361 31.3063C167.144 29.5647 166.731 27.8531 166.13 26.2043C165.797 25.3063 165.497 24.6124 165.137 23.8437C164.776 23.075 165.076 23.6873 164.797 23.1635C164.552 22.8642 164.429 22.6533 164.307 22.4424V22.4424Z" fill="#454367"/>
<path d="M179.96 13.7369C180.242 13.8623 180.507 14.0222 180.749 14.2131C181.069 14.424 181.354 14.7029 181.538 14.7845C181.722 14.8662 181.279 14.2743 181.538 14.3832C181.647 14.3832 180.939 13.9138 181.035 13.8934C181.13 13.873 180.994 13.7165 181.035 13.6553C181.511 13.9342 182.082 14.5124 182.239 14.4308C182.783 14.9206 183.313 15.4376 183.599 15.6757C184.661 16.9628 185.555 18.3801 186.259 19.8934C186.484 20.2879 186.688 20.7301 186.864 21.0226C187.805 23.3363 188.452 25.7588 188.79 28.2335C188.892 28.7981 188.953 29.3695 189.048 29.7505C189.254 31.6026 189.349 33.4653 189.334 35.3287C189.477 36.8593 189.504 38.6212 189.592 39.9273C189.47 42.0838 189.279 44.628 189.137 46.3423C188.998 47.2646 188.787 48.1745 188.504 49.0633C188.395 49.6484 188.279 50.0633 188.171 50.5599C187.79 51.7096 187.592 52.5055 187.157 54.179C186.967 54.5463 186.762 55.4239 186.572 55.7436C186.307 56.4239 186.266 56.6824 186.007 57.3082C185.977 56.7926 186.07 56.2771 186.279 55.8048C186.211 55.6824 186.109 56.1518 186.048 56.0293C186.224 55.6027 186.376 55.1666 186.504 54.7232C186.769 53.4987 187.082 52.0429 187.402 50.5531C187.633 48.7708 187.885 47.077 188.082 45.111C188.244 42.9676 188.294 40.8173 188.232 38.6688C188.291 37.1182 188.237 35.5652 188.069 34.0226C188.069 32.4715 187.817 30.8049 187.66 29.111C187.436 27.9137 187.198 26.594 186.885 25.3015C186.586 24.0543 186.176 22.8363 185.66 21.6621C184.816 19.4535 183.545 17.4332 181.919 15.7165C181.494 15.3336 181.039 14.9855 180.558 14.6757C180.137 14.3968 180.558 14.458 180.252 14.2131C180.147 14.0595 180.049 13.9006 179.96 13.7369Z" fill="#454367"/>
<path d="M189.722 8.98119C190.205 9.17133 190.663 9.42282 191.082 9.72949C191.307 9.72949 190.885 9.28731 191.082 9.36214C191.191 9.30772 190.565 9.0016 190.654 8.96078C190.742 8.91997 190.62 8.79752 190.654 8.72949C191.069 8.95398 191.579 9.40976 191.715 9.34854C192.191 9.7635 192.606 10.2397 192.878 10.4438C193.687 11.5881 194.331 12.8408 194.79 14.1649C194.946 14.5118 195.089 14.8859 195.232 15.1376C195.852 17.0929 196.367 19.0799 196.776 21.09C196.878 21.5526 196.973 22.022 197.075 22.3281C197.273 23.8655 197.708 25.6342 197.715 26.9199C197.98 28.1648 198.184 29.641 198.436 30.675C198.552 32.4641 198.742 34.573 198.871 35.9947C198.885 36.7708 198.835 37.5466 198.722 38.3144C198.722 38.811 198.688 39.1648 198.667 39.5865C198.527 40.6197 198.446 41.6599 198.422 42.7022C198.32 43.0355 198.327 43.777 198.205 44.0627C198.116 44.6818 198.13 44.879 198.028 45.4233C197.877 45.0166 197.844 44.5757 197.933 44.1512C197.837 44.0627 197.858 44.4641 197.762 44.3688C197.824 44.0064 197.865 43.6407 197.885 43.2736C197.885 42.26 197.885 40.9947 197.885 39.7158C197.762 38.226 197.728 36.8042 197.62 35.1444C197.511 33.4845 197.239 31.4709 196.939 29.8179C196.835 28.529 196.64 27.2491 196.354 25.9879C196.232 24.7022 195.892 23.3417 195.674 21.9063C195.157 19.9403 194.66 17.5118 193.973 15.641C193.457 13.769 192.553 12.0262 191.32 10.5254C190.985 10.2166 190.613 9.95146 190.211 9.73629C189.871 9.53221 190.252 9.51861 189.973 9.34854C189.883 9.23069 189.799 9.10806 189.722 8.98119H189.722Z" fill="#454367"/>
<path d="M202.892 13.1302C203.014 13.1302 202.967 13.3275 203.075 13.3615C203.184 13.3955 203.273 13.2459 203.354 13.2663C203.436 13.2867 203.307 13.171 203.402 13.1574C203.497 13.1438 203.511 13.1166 203.586 13.0962C203.66 13.0758 203.64 13.2731 203.783 13.2459C203.824 13.3411 203.858 13.4295 203.967 13.4568C203.967 13.688 204.069 13.8649 204.069 14.137C204.103 14.194 204.149 14.2428 204.205 14.2799C204.287 14.6018 204.346 14.9292 204.382 15.2595C204.387 15.3311 204.413 15.3997 204.456 15.4567C204.375 15.7289 204.572 15.9874 204.422 16.2323C204.515 16.433 204.634 16.6206 204.776 16.7901C204.775 17.0823 204.847 17.3701 204.987 17.6268C204.953 17.7629 204.987 17.9261 204.844 18.0418C204.855 18.1117 204.855 18.1828 204.844 18.2527C204.743 18.4127 204.714 18.6074 204.763 18.7901C204.681 18.8649 204.763 18.9805 204.647 19.0486C204.531 19.1166 204.647 19.1846 204.599 19.2867C204.45 19.2867 204.382 19.2322 204.395 19.1234C204.293 19.1234 204.348 19.1846 204.246 19.1914C204.314 19.137 204.246 19.0486 204.3 18.9873C204.201 18.8158 204.139 18.626 204.116 18.4295C203.973 18.2261 203.875 17.994 203.831 17.7493C203.674 17.4908 203.586 17.1778 203.422 16.9329C203.425 16.7147 203.366 16.5002 203.252 16.3139C203.293 16.0894 203.171 15.8785 203.205 15.6336C203.055 15.3207 203.089 14.8989 202.919 14.5996C202.919 14.2867 202.722 13.9534 202.742 13.62C202.689 13.5453 202.629 13.4748 202.565 13.4091C202.531 13.3411 202.742 13.3547 202.735 13.2935L202.892 13.1302Z" fill="#454367"/>
<path d="M114.062 51.4375C114.062 51.6484 113.702 52.1926 113.681 52.4443C113.77 52.628 114.008 52.2946 114.008 52.4443C114.008 52.594 114.191 52.0429 114.253 52.1178C114.314 52.1926 114.395 52.1178 114.463 52.1178C114.348 52.4239 114.103 52.8321 114.185 52.9341C113.96 53.2338 113.767 53.5552 113.606 53.8933C113.219 54.2198 112.926 54.5735 112.525 54.8729L111.96 55.3354C111.756 55.4715 111.545 55.6076 111.321 55.7436C111.096 55.8797 110.885 56.0905 110.742 56.2266C109.514 56.9489 108.249 57.6074 106.953 58.1994C106.695 58.3239 106.447 58.4695 106.212 58.6348C105.283 59.0828 104.386 59.5919 103.525 60.1586C102.908 60.6976 102.412 61.3606 102.069 62.1041C101.757 62.5821 101.528 63.1086 101.389 63.662C101.264 64.1713 101.223 64.6973 101.266 65.2198C101.191 65.7164 101.266 66.3558 101.171 66.7164C101.219 67.0429 101.232 67.281 101.273 67.5599C101.299 68.2721 101.442 68.9753 101.695 69.6415C101.695 69.8864 101.892 70.3558 101.878 70.5871C101.987 71.0089 102.062 71.1245 102.144 71.5123C101.889 71.3355 101.717 71.063 101.668 70.7572C101.552 70.7572 101.668 70.9885 101.572 70.9681C101.52 70.7018 101.454 70.4384 101.375 70.1789C101.019 69.4213 100.745 68.6276 100.559 67.8116C100.184 66.764 100.035 65.6487 100.123 64.5395C100.167 63.1771 100.604 61.8565 101.382 60.7368C101.536 60.5499 101.702 60.3727 101.878 60.2062C102.049 60.0361 102.219 59.8388 102.402 59.662C102.783 59.349 103.13 58.9817 103.47 58.73C104.3 58.194 105.163 57.7123 106.055 57.2878C107.287 56.5395 108.892 55.9273 110.014 55.1178C111.178 54.4762 112.214 53.6252 113.069 52.6076C113.164 52.4579 113.246 52.315 113.314 52.1858C113.382 52.0565 113.416 51.8933 113.463 51.7504C113.579 51.4987 113.661 51.7844 113.776 51.5872C113.868 51.5312 113.964 51.4812 114.062 51.4375Z" fill="#454367"/>
<path d="M91.3003 60.2168C91.2391 60.0876 91.4567 59.8699 91.4159 59.7339C91.3751 59.5978 91.1642 59.7339 91.1234 59.6522C91.0826 59.5706 91.0554 59.8291 90.9874 59.7747C90.9193 59.7202 90.8649 59.7747 90.7969 59.7134C90.7969 59.5706 90.9465 59.4073 90.7969 59.3189C90.8784 59.1787 90.9185 59.0183 90.9125 58.8563C91.1778 58.523 91.3139 58.176 91.5928 57.8087C91.6462 57.7093 91.6807 57.6009 91.6948 57.489C92.0436 56.9571 92.4349 56.4543 92.8649 55.9856C92.96 55.8932 93.0382 55.785 93.0962 55.6658C93.5044 55.3869 93.7765 54.8835 94.205 54.7407C94.4506 54.4252 94.6777 54.0959 94.8853 53.7543C95.3333 53.4287 95.7481 53.0595 96.1234 52.6522C96.3615 52.557 96.6132 52.3801 96.8037 52.4005C96.9166 52.3321 97.0349 52.273 97.1574 52.2237C97.4822 52.1649 97.7907 52.0374 98.0622 51.8495C98.1914 51.8495 98.3751 51.7339 98.5043 51.7679C98.6364 51.7114 98.7729 51.6659 98.9125 51.6318C98.9276 51.7883 98.8266 51.9326 98.6744 51.972C98.6744 52.0672 98.7833 51.972 98.8173 52.074C98.7152 52.074 98.5792 52.1624 98.4703 52.1692C98.2079 52.411 97.9232 52.6274 97.62 52.8155C97.3141 53.1568 96.9771 53.4688 96.6132 53.7475C96.2799 54.1488 95.8513 54.5502 95.5656 54.972C95.254 55.1981 94.9866 55.4794 94.7765 55.8019C94.4567 56.0264 94.2322 56.3801 93.8989 56.6454C93.5193 57.1554 93.1695 57.6869 92.8513 58.2373C92.4703 58.6454 92.2459 59.2781 91.8717 59.7339C91.8277 59.8806 91.7958 60.0308 91.7765 60.1828C91.7288 60.3053 91.5996 60.1148 91.5384 60.1828L91.3003 60.2168Z" fill="#454367"/>
<path d="M183.633 4.09746C183.722 4.01583 183.756 4.13828 183.837 4.09746C183.919 4.05665 183.926 3.89338 183.98 3.83896C184.035 3.78454 183.919 3.83896 183.98 3.75733C184.042 3.67569 184.035 3.65529 184.082 3.59406C184.13 3.53284 184.164 3.63488 184.252 3.50563C184.311 3.52991 184.379 3.51013 184.416 3.45801C184.47 3.56685 184.593 3.54644 184.667 3.63488C184.71 3.62833 184.751 3.60942 184.783 3.58046C184.885 3.66889 185.069 3.63488 185.198 3.77093C185.226 3.79137 185.265 3.79137 185.293 3.77093C185.375 3.9342 185.538 3.82535 185.599 4.03624C185.715 3.97501 185.831 3.96141 185.919 3.83896C186.036 3.91985 186.19 3.91985 186.307 3.83896C186.368 3.90018 186.443 3.90699 186.497 4.04984C186.531 4.04984 186.565 4.09066 186.599 4.10426C186.701 4.24032 186.763 4.26073 186.885 4.25392C187.008 4.24712 186.987 4.29474 187.035 4.38318C187.082 4.47161 187.11 4.38318 187.178 4.4512C187.246 4.51923 187.178 4.65528 187.11 4.63488C187.11 4.73692 187.157 4.6893 187.171 4.79134C187.13 4.72331 187.082 4.79134 187.042 4.72331C186.953 4.80516 186.836 4.8491 186.715 4.84576C186.596 4.95949 186.437 5.02077 186.273 5.01583C186.103 5.11787 185.899 5.13828 185.715 5.22671C185.581 5.17601 185.434 5.17601 185.3 5.22671C185.184 5.11787 185.021 5.15868 184.899 5.03623C184.667 5.03623 184.47 4.85936 184.218 4.86617C184.069 4.71651 183.797 4.71651 183.667 4.53283C183.6 4.52257 183.531 4.52257 183.463 4.53283C183.416 4.53283 183.565 4.37637 183.538 4.34916C183.559 4.26149 183.591 4.17689 183.633 4.09746Z" fill="#454367"/>
<path d="M130.783 68.3197C131.144 68.5782 132.314 69.6462 132.783 69.8979C133.028 69.9796 132.293 69.3945 132.579 69.5646C132.667 69.5646 131.803 68.9592 131.899 68.9728C131.994 68.9864 131.797 68.8095 131.824 68.7823C132.262 69.1753 132.744 69.5176 133.259 69.8027C133.887 70.2602 134.551 70.6652 135.246 71.0136C137.05 72.0679 138.964 72.9232 140.953 73.5646C141.511 73.7279 142.096 73.8979 142.511 73.9796C145.583 74.7876 148.723 75.3113 151.892 75.5442C152.633 75.6054 153.368 75.6598 153.871 75.6666C155.831 75.8435 158.075 75.8843 159.905 75.9795L159.613 76.2721C159.587 75.9234 159.48 75.5856 159.3 75.2857C158.676 74.5136 157.885 73.8927 156.987 73.4694C156.15 73.031 155.281 72.6558 154.388 72.3469C151.837 71.2851 149.219 70.3898 146.552 69.6666C145.368 69.3061 143.865 68.9388 143.089 68.7075C142.314 68.4762 141.797 68.4286 141.143 68.3129C139.556 67.9723 137.947 67.7449 136.327 67.6326C135.803 67.551 134.64 67.4898 134.164 67.4354C133.184 67.3605 132.878 67.3877 132.001 67.3333C132.662 67.2523 133.33 67.2386 133.994 67.2925C134.13 67.2517 133.49 67.2449 133.633 67.1973C133.987 67.2517 134.946 67.2653 135.443 67.3333C137.315 67.4055 139.18 67.5964 141.028 67.9047C143.427 68.2518 145.794 68.7863 148.109 69.5034C150.842 70.3055 153.529 71.257 156.157 72.3537C157.017 72.7505 157.837 73.2289 158.606 73.7823C159.007 74.0853 159.368 74.4372 159.681 74.8299C159.989 75.2429 160.18 75.732 160.232 76.2449V76.5986H159.858H159.239C157.198 76.4898 154.98 76.4489 152.722 76.2449C149.267 76.0517 145.839 75.53 142.484 74.687C140.966 74.2595 139.476 73.7416 138.021 73.136C136.509 72.4969 135.063 71.7132 133.701 70.7959C132.96 70.3061 132.341 69.9183 131.742 69.4354C131.144 68.9524 131.674 69.2721 131.246 68.8843C131.069 68.6666 130.933 68.4966 130.783 68.3197H130.783Z" fill="#454367"/>
<path d="M130.906 68.1845C134.647 71.7083 139.572 73.7763 144.593 74.8647C149.613 75.9531 154.797 76.1164 159.919 76.2865C159.824 73.9736 155.49 72.3885 153.334 71.5586C145.946 68.7151 139.94 67.4089 132.028 67.3613" fill="#454367"/>
</svg>
