<svg width="100" height="100" viewBox="0 0 100 100" fill="none" xmlns="http://www.w3.org/2000/svg">
<!-- <rect width="100" height="100" rx="10" fill="#FFECD2"/> -->
<g clip-path="url(#clipLogo)">
<path d="M79.3431 70.146L74.0876 64.8905C81.3139 53.5037 79.781 38.3942 69.927 28.5401C64.4526 23.0657 57.2263 20 49.3431 20C41.4599 20 34.2336 23.0657 28.5401 28.5401C27.0073 30.073 25.6934 31.8248 24.5985 33.7956L46.9343 56.1314L55.9124 65.1095C53.9416 65.9854 51.7518 66.4234 49.3431 66.4234C44.7445 66.4234 40.5839 64.6715 37.2993 61.3869C34.2336 58.3212 32.4818 54.3796 32.2628 50L21.7518 39.489C20.6569 42.5547 20 46.0584 20 49.3431C20 57.2263 23.0657 64.4526 28.5401 70.146C34.0146 75.8394 41.4599 78.6861 49.3431 78.6861C55.0365 78.6861 60.292 77.1533 64.8905 74.0876L70.146 79.3431C70.5839 79.781 71.0219 80 71.6788 80C72.3358 80 72.7737 79.781 73.2117 79.3431L79.3431 73.2117C80.219 72.3358 80.219 71.0219 79.3431 70.146ZM65.1095 55.9124L42.7737 33.5766C44.7445 32.7007 46.9343 32.2628 49.3431 32.2628C53.9416 32.2628 58.1022 34.0146 61.3869 37.2993C64.6715 40.5839 66.4234 44.7445 66.4234 49.3431C66.4234 51.5328 65.9854 53.7226 65.1095 55.9124Z" fill="#454367"/>
<path d="M33.7957 24.5996C31.8249 25.6945 30.0731 27.0084 28.5402 28.5412C27.0074 30.0741 25.6935 31.8259 24.5986 33.7967L70.1461 79.3441C70.584 79.7821 71.022 80.0011 71.6789 80.0011C72.3359 80.0011 72.7738 79.7821 73.2118 79.3441L79.3432 73.2127C80.2191 72.3368 80.2191 71.023 79.3432 70.1471L33.7957 24.5996Z" fill="#82648F"/>
</g>
<defs>
<clipPath id="clipLogo">
<rect width="60" height="60" fill="white" transform="translate(20 20)"/>
</clipPath>
</defs>
</svg>
