<svg viewBox="0 0 183 48" fill="none" xmlns="http://www.w3.org/2000/svg">
<path fill-rule="evenodd" clip-rule="evenodd" d="M79.116 6.79593C79.116 4.91768 77.7028 3.46856 75.8723 3.46856C74.0474 3.46856 72.6286 4.91768 72.6286 6.79593C72.6286 8.67417 74.0474 10.1228 75.8723 10.1228C77.7033 10.1228 79.116 8.67417 79.116 6.79593ZM70.7344 6.79593C70.7344 3.87752 72.951 1.6748 75.8723 1.6748C78.7922 1.6748 81.0102 3.878 81.0102 6.79593C81.0102 9.71432 78.7922 11.9166 75.8723 11.9166C72.951 11.9166 70.7344 9.71432 70.7344 6.79593ZM89.7199 4.9892C89.7199 4.07336 89.1494 3.43592 88.0596 3.43592H86.3872C86.3032 3.43592 86.2226 3.47016 86.1632 3.5311C86.1038 3.59205 86.0704 3.6747 86.0704 3.76089V6.19881C86.0704 6.37785 86.2127 6.52281 86.3872 6.52281H88.0596C89.1499 6.52281 89.7199 5.94489 89.7199 4.9892ZM91.5509 5.0084C91.5509 6.80265 90.2959 8.16057 88.3451 8.16057H86.3872C86.3032 8.16057 86.2226 8.1948 86.1632 8.25574C86.1038 8.31669 86.0704 8.39934 86.0704 8.48553V11.4625C86.0705 11.5051 86.0624 11.5473 86.0465 11.5866C86.0307 11.626 86.0074 11.6618 85.9781 11.6919C85.9488 11.722 85.9139 11.7459 85.8756 11.7623C85.8372 11.7786 85.7961 11.787 85.7546 11.787H84.4991C84.4575 11.787 84.4164 11.7787 84.3779 11.7624C84.3395 11.7461 84.3046 11.7222 84.2751 11.6921C84.2457 11.662 84.2224 11.6262 84.2064 11.5868C84.1905 11.5474 84.1823 11.5051 84.1823 11.4625V2.12936C84.1823 1.95032 84.3241 1.80488 84.4991 1.80488H88.3451C90.2964 1.80488 91.5504 3.24104 91.5504 5.00889L91.5509 5.0084ZM96.4974 3.85209V5.62617C96.4974 5.80521 96.6383 5.95113 96.8137 5.95113H99.633C99.808 5.95113 99.9498 6.09609 99.9498 6.27609V7.32921C99.9498 7.41539 99.9164 7.49804 99.857 7.55899C99.7976 7.61993 99.7171 7.65417 99.633 7.65417H96.8137C96.7722 7.6541 96.731 7.66243 96.6926 7.67868C96.6542 7.69493 96.6193 7.71878 96.5899 7.74886C96.5605 7.77895 96.5372 7.81468 96.5212 7.85403C96.5052 7.89337 96.497 7.93555 96.4969 7.97817V9.73977C96.4969 9.91929 96.6383 10.0647 96.8137 10.0647H100.102C100.277 10.0647 100.419 10.2102 100.419 10.3887V11.462C100.419 11.5481 100.385 11.6307 100.326 11.6916C100.267 11.7525 100.186 11.7868 100.102 11.787H94.9251C94.8836 11.787 94.8424 11.7786 94.804 11.7622C94.7656 11.7459 94.7307 11.7219 94.7013 11.6918C94.6719 11.6616 94.6486 11.6257 94.6328 11.5863C94.6169 11.5469 94.6088 11.5047 94.6088 11.462V2.12936C94.6088 1.95032 94.7506 1.80536 94.9251 1.80536H100.102C100.276 1.80536 100.418 1.95032 100.418 2.12936V3.20216C100.418 3.28827 100.385 3.37085 100.326 3.43178C100.266 3.4927 100.186 3.527 100.102 3.52713H96.8133C96.7292 3.52713 96.6487 3.56136 96.5893 3.6223C96.5298 3.68325 96.4965 3.7659 96.4965 3.85209H96.4974ZM113.018 2.12936V11.462C113.018 11.5482 112.985 11.6308 112.925 11.6918C112.866 11.7527 112.785 11.787 112.701 11.787H111.384C111.336 11.787 111.289 11.776 111.246 11.7547C111.203 11.7334 111.165 11.7024 111.136 11.6641L106.246 5.36457C106.059 5.12457 105.682 5.25945 105.682 5.56713V11.462C105.682 11.5482 105.649 11.6308 105.589 11.6918C105.53 11.7527 105.449 11.787 105.365 11.787H104.136C104.052 11.7868 103.972 11.7525 103.912 11.6916C103.853 11.6307 103.82 11.5481 103.82 11.462V2.12936C103.82 1.95032 103.961 1.80488 104.136 1.80488H105.441C105.537 1.80488 105.628 1.85 105.688 1.9268L110.579 8.20377C110.766 8.44377 111.143 8.30841 111.143 8.00217V2.12888C111.143 1.94984 111.284 1.8044 111.459 1.8044H112.701C112.876 1.8044 113.018 1.94984 113.018 2.12888V2.12936ZM81.0097 23.9876C81.0097 26.9185 78.7992 29.1212 75.8723 29.1212C72.951 29.1212 70.7344 26.918 70.7344 24.0006C70.7344 21.0822 72.951 18.8799 75.8723 18.8799C77.5522 18.8799 79.0009 19.6124 79.9218 20.7831C79.9513 20.8202 79.9725 20.8634 79.984 20.9098C79.9954 20.9562 79.9968 21.0046 79.9881 21.0516C79.9793 21.0986 79.9607 21.143 79.9334 21.1818C79.9061 21.2206 79.8708 21.2528 79.8301 21.2761L78.7445 21.891C78.6821 21.9275 78.6093 21.9409 78.5384 21.9292C78.4675 21.9174 78.4027 21.881 78.3547 21.8262C77.7651 21.1206 76.8821 20.6732 75.8653 20.6732C74.0474 20.6732 72.6286 22.0964 72.6286 24.0457C72.6286 25.8726 73.8892 27.3279 75.8976 27.3279C77.3262 27.3279 78.3879 26.5945 78.853 25.4314C78.9368 25.2202 78.7782 24.9884 78.5559 24.9884H76.7777C76.7362 24.9884 76.695 24.98 76.6566 24.9637C76.6182 24.9473 76.5833 24.9234 76.5539 24.8932C76.5245 24.863 76.5012 24.8272 76.4854 24.7878C76.4695 24.7483 76.4614 24.7061 76.4614 24.6634V23.7145C76.4614 23.535 76.6032 23.3895 76.7777 23.3895H80.6827C80.8506 23.3895 80.9868 23.5225 80.999 23.6938C81.006 23.7879 81.0097 23.8858 81.0097 23.9876ZM91.7788 24.0006C91.7788 22.1223 90.3656 20.6737 88.535 20.6737C86.7106 20.6737 85.2913 22.1223 85.2913 24.0006C85.2913 25.8788 86.7106 27.3274 88.535 27.3274C90.3656 27.3274 91.7788 25.8788 91.7788 24.0006ZM83.3971 24.0006C83.3971 21.0822 85.6142 18.8794 88.535 18.8794C91.4549 18.8794 93.673 21.0826 93.673 24.0006C93.673 26.919 91.4549 29.1217 88.535 29.1217C85.6142 29.1217 83.3971 26.9185 83.3971 24.0006ZM104.482 19.4492L101.034 28.7818C101.012 28.8434 100.971 28.8964 100.919 28.9339C100.866 28.9713 100.803 28.9915 100.739 28.9916H99.2245C99.1603 28.9916 99.0976 28.9715 99.0448 28.934C98.992 28.8965 98.9515 28.8435 98.9288 28.7818L95.4871 19.4492C95.4691 19.4 95.4629 19.3471 95.4691 19.295C95.4753 19.2428 95.4938 19.193 95.5229 19.1497C95.552 19.1065 95.5909 19.0712 95.6363 19.0468C95.6817 19.0223 95.7321 19.0096 95.7833 19.0095H97.0982C97.2316 19.0095 97.3509 19.0959 97.3958 19.225L99.684 25.8025C99.7842 26.0905 100.18 26.0905 100.28 25.803L102.574 19.225C102.595 19.162 102.636 19.1074 102.689 19.0688C102.743 19.0302 102.806 19.0095 102.872 19.0095H104.186C104.407 19.0095 104.561 19.2366 104.482 19.4492ZM109.376 21.0562V22.8313C109.376 23.0103 109.518 23.1558 109.692 23.1558H112.512C112.687 23.1558 112.829 23.3007 112.829 23.4802V24.5338C112.829 24.6199 112.795 24.7025 112.736 24.7633C112.676 24.8242 112.596 24.8583 112.512 24.8583H109.692C109.608 24.8585 109.528 24.8927 109.469 24.9537C109.409 25.0146 109.376 25.0972 109.376 25.1833V26.9449C109.376 27.1239 109.518 27.2689 109.692 27.2689H112.981C113.156 27.2689 113.297 27.4148 113.297 27.5938V28.6666C113.297 28.7093 113.289 28.7515 113.273 28.791C113.257 28.8304 113.234 28.8662 113.205 28.8964C113.175 28.9266 113.14 28.9505 113.102 28.9669C113.064 28.9832 113.022 28.9916 112.981 28.9916H107.804C107.762 28.9915 107.721 28.9831 107.683 28.9667C107.644 28.9504 107.609 28.9264 107.58 28.8962C107.551 28.8661 107.528 28.8302 107.512 28.7909C107.496 28.7515 107.488 28.7093 107.488 28.6666V19.3345C107.488 19.155 107.629 19.0095 107.804 19.0095H112.981C113.156 19.0095 113.297 19.155 113.297 19.3345V20.4073C113.297 20.4499 113.289 20.4921 113.273 20.5315C113.257 20.5709 113.234 20.6067 113.205 20.6369C113.175 20.667 113.14 20.6909 113.102 20.7072C113.064 20.7235 113.022 20.7318 112.981 20.7318H109.692C109.608 20.7319 109.528 20.7661 109.469 20.8269C109.409 20.8878 109.376 20.9702 109.376 21.0562ZM118.586 22.8961C118.586 23.0751 118.728 23.221 118.903 23.221H120.373C121.279 23.221 121.767 22.7458 121.767 21.9471C121.767 21.1609 121.279 20.6473 120.372 20.6473H118.903C118.819 20.6473 118.738 20.6815 118.679 20.7425C118.619 20.8034 118.586 20.8861 118.586 20.9722V22.8961ZM119.983 24.7734H118.902C118.818 24.7734 118.737 24.8076 118.678 24.8685C118.619 24.9295 118.585 25.0121 118.585 25.0983V28.6666C118.585 28.7093 118.577 28.7515 118.561 28.791C118.545 28.8304 118.522 28.8662 118.493 28.8964C118.463 28.9266 118.429 28.9505 118.39 28.9669C118.352 28.9832 118.311 28.9916 118.269 28.9916H117.014C116.972 28.9916 116.931 28.9832 116.893 28.9669C116.854 28.9505 116.819 28.9266 116.79 28.8964C116.761 28.8662 116.737 28.8304 116.722 28.791C116.706 28.7515 116.698 28.7093 116.698 28.6666V19.3345C116.698 19.155 116.839 19.0095 117.014 19.0095H120.499C122.5 19.0095 123.596 20.3353 123.596 21.9663C123.596 23.0583 123.05 23.9343 122.208 24.4038C122.171 24.4243 122.139 24.4524 122.112 24.4863C122.086 24.5202 122.066 24.5593 122.055 24.601C122.044 24.6428 122.041 24.6865 122.047 24.7295C122.052 24.7725 122.066 24.8139 122.088 24.8511L124.195 28.5015C124.223 28.5508 124.238 28.6069 124.239 28.6641C124.239 28.7213 124.225 28.7775 124.197 28.8272C124.169 28.8769 124.129 28.9182 124.081 28.947C124.033 28.9758 123.978 28.991 123.923 28.9911H122.612C122.556 28.9913 122.5 28.9758 122.451 28.9462C122.402 28.9167 122.362 28.8741 122.335 28.8231L120.26 24.9423C120.232 24.8912 120.192 24.8486 120.143 24.8189C120.095 24.7892 120.039 24.7734 119.982 24.7734H119.983ZM136.52 19.3345V28.6671C136.52 28.7531 136.486 28.8356 136.427 28.8964C136.368 28.9573 136.287 28.9915 136.203 28.9916H134.886C134.838 28.9917 134.791 28.9808 134.748 28.9596C134.705 28.9384 134.667 28.9075 134.638 28.8692L129.748 22.5692C129.561 22.3292 129.184 22.4646 129.184 22.7718V28.6671C129.184 28.7532 129.15 28.8358 129.091 28.8966C129.032 28.9574 128.951 28.9916 128.867 28.9916H127.637C127.554 28.9915 127.473 28.9572 127.414 28.8964C127.355 28.8356 127.322 28.7531 127.322 28.6671V19.3345C127.322 19.155 127.463 19.0095 127.637 19.0095H128.943C129.039 19.0095 129.13 19.0546 129.19 19.1319L134.081 25.4084C134.268 25.6484 134.645 25.513 134.645 25.2058V19.335C134.645 19.1554 134.786 19.01 134.961 19.01H136.203C136.378 19.01 136.52 19.1554 136.52 19.335L136.52 19.3345ZM150.994 19.3345V28.6671C150.994 28.7532 150.961 28.8357 150.902 28.8966C150.842 28.9574 150.762 28.9916 150.678 28.9916H149.423C149.339 28.9916 149.259 28.9574 149.199 28.8966C149.14 28.8358 149.106 28.7532 149.106 28.6671V23.2537C149.106 22.898 148.629 22.8015 148.497 23.1308L146.241 28.79C146.217 28.8495 146.177 28.9004 146.125 28.9363C146.073 28.9722 146.011 28.9914 145.949 28.9916H145.392C145.329 28.9915 145.267 28.9722 145.215 28.9362C145.163 28.9001 145.122 28.8489 145.098 28.789L142.855 23.1279C142.724 22.7982 142.245 22.8937 142.245 23.2503V28.6671C142.245 28.7532 142.212 28.8358 142.152 28.8966C142.093 28.9574 142.013 28.9916 141.929 28.9916H140.674C140.59 28.9916 140.51 28.9574 140.45 28.8966C140.391 28.8358 140.357 28.7532 140.357 28.6671V19.3345C140.357 19.155 140.5 19.0095 140.674 19.0095H142.706C142.834 19.0095 142.949 19.0887 142.998 19.2102L145.375 25.1161C145.399 25.1756 145.439 25.2264 145.491 25.2623C145.543 25.2981 145.604 25.3173 145.667 25.3174C145.73 25.3175 145.791 25.2985 145.843 25.2629C145.895 25.2272 145.936 25.1764 145.96 25.117L148.36 19.2092C148.384 19.1501 148.425 19.0996 148.477 19.0641C148.529 19.0286 148.59 19.0096 148.652 19.0095H150.679C150.853 19.0095 150.994 19.155 150.994 19.3345ZM156.727 21.0562V22.8313C156.727 23.0103 156.868 23.1558 157.043 23.1558H159.863C160.038 23.1558 160.179 23.3007 160.179 23.4802V24.5338C160.179 24.6199 160.146 24.7024 160.087 24.7633C160.027 24.8241 159.947 24.8583 159.863 24.8583H157.043C156.959 24.8583 156.879 24.8926 156.819 24.9535C156.76 25.0144 156.727 25.0971 156.727 25.1833V26.9449C156.727 27.1239 156.868 27.2689 157.043 27.2689H160.332C160.507 27.2689 160.648 27.4148 160.648 27.5938V28.6666C160.648 28.7093 160.64 28.7515 160.624 28.7909C160.608 28.8302 160.585 28.8661 160.556 28.8962C160.526 28.9264 160.491 28.9504 160.453 28.9667C160.415 28.9831 160.374 28.9915 160.332 28.9916H155.155C155.113 28.9916 155.072 28.9832 155.034 28.9669C154.995 28.9505 154.96 28.9266 154.931 28.8964C154.902 28.8662 154.878 28.8304 154.862 28.791C154.847 28.7515 154.838 28.7093 154.838 28.6666V19.3345C154.838 19.155 154.981 19.0095 155.155 19.0095H160.332C160.507 19.0095 160.648 19.155 160.648 19.3345V20.4073C160.648 20.4499 160.64 20.4921 160.624 20.5314C160.608 20.5708 160.585 20.6066 160.556 20.6367C160.526 20.6668 160.491 20.6907 160.453 20.7071C160.415 20.7234 160.374 20.7318 160.332 20.7318H157.043C156.959 20.7318 156.879 20.7659 156.82 20.8268C156.76 20.8876 156.727 20.9701 156.727 21.0562ZM173.248 19.3345V28.6671C173.248 28.7098 173.24 28.752 173.224 28.7914C173.208 28.8308 173.184 28.8666 173.155 28.8968C173.125 28.9269 173.09 28.9508 173.052 28.9671C173.013 28.9833 172.972 28.9917 172.931 28.9916H171.613C171.566 28.9916 171.519 28.9807 171.476 28.9595C171.433 28.9383 171.395 28.9074 171.366 28.8692L166.475 22.5692C166.289 22.3292 165.912 22.4646 165.912 22.7718V28.6671C165.912 28.7531 165.878 28.8356 165.819 28.8964C165.76 28.9573 165.679 28.9915 165.595 28.9916H164.365C164.281 28.9915 164.201 28.9572 164.141 28.8964C164.082 28.8356 164.049 28.7531 164.049 28.6671V19.3345C164.049 19.155 164.19 19.0095 164.365 19.0095H165.67C165.767 19.0095 165.857 19.0546 165.917 19.1319L170.809 25.4084C170.995 25.6484 171.372 25.513 171.372 25.2058V19.335C171.372 19.1554 171.513 19.01 171.689 19.01H172.931C173.106 19.01 173.247 19.1554 173.247 19.335" fill="white"/>
<mask id="mask0" masktype="alpha" maskUnits="userSpaceOnUse" x="176" y="19" width="8" height="10">
<path d="M176.172 19.0088H183.065V28.9909H176.172V19.0088Z" fill="white"/>
</mask>
<g mask="url(#mask0)">
<path fill-rule="evenodd" clip-rule="evenodd" d="M182.749 20.731H180.879C180.837 20.731 180.796 20.7394 180.758 20.7558C180.719 20.7721 180.684 20.7961 180.655 20.8262C180.626 20.8564 180.602 20.8922 180.586 20.9317C180.571 20.9711 180.562 21.0133 180.563 21.056V28.6664C180.562 28.7524 180.529 28.8349 180.47 28.8957C180.41 28.9565 180.33 28.9907 180.246 28.9909H178.997C178.913 28.9907 178.833 28.9565 178.774 28.8957C178.714 28.8349 178.681 28.7524 178.681 28.6664V21.056C178.681 21.0133 178.673 20.9711 178.657 20.9317C178.641 20.8922 178.618 20.8564 178.588 20.8262C178.559 20.7961 178.524 20.7721 178.486 20.7558C178.447 20.7394 178.406 20.731 178.365 20.731H176.489C176.405 20.731 176.325 20.6969 176.265 20.6362C176.206 20.5755 176.173 20.493 176.172 20.407V19.3337C176.172 19.1542 176.314 19.0088 176.489 19.0088H182.749C182.924 19.0088 183.065 19.1542 183.065 19.3337V20.4065C183.065 20.4926 183.032 20.5752 182.973 20.636C182.913 20.6969 182.833 20.731 182.749 20.731Z" fill="white"/>
</g>
<path fill-rule="evenodd" clip-rule="evenodd" d="M76.9423 39.3984C76.9423 38.4825 76.3724 37.8451 75.2826 37.8451H73.6102C73.5262 37.8451 73.4456 37.8793 73.3862 37.9403C73.3268 38.0012 73.2934 38.0839 73.2934 38.1701V40.608C73.2934 40.787 73.4352 40.932 73.6102 40.932H75.2826C76.3729 40.932 76.9428 40.3541 76.9428 39.3984H76.9423ZM78.7738 39.4185C78.7738 41.2118 77.5198 42.5697 75.5675 42.5697H73.6102C73.5262 42.5697 73.4456 42.604 73.3862 42.6649C73.3268 42.7259 73.2934 42.8085 73.2934 42.8947V45.8717C73.2934 45.9143 73.2853 45.9565 73.2694 45.9959C73.2536 46.0353 73.2303 46.0711 73.2009 46.1012C73.1715 46.1314 73.1366 46.1553 73.0982 46.1716C73.0598 46.1879 73.0186 46.1962 72.9771 46.1961H71.7221C71.6805 46.1962 71.6393 46.1879 71.6009 46.1716C71.5624 46.1553 71.5275 46.1314 71.4981 46.1013C71.4687 46.0711 71.4453 46.0353 71.4294 45.9959C71.4135 45.9565 71.4053 45.9143 71.4053 45.8717V36.5385C71.4053 36.3595 71.5466 36.2141 71.7221 36.2141H75.5675C77.5193 36.2141 78.7738 37.6507 78.7738 39.4185ZM83.7199 40.1006C83.7199 40.2797 83.8617 40.4256 84.0367 40.4256H85.506C86.4119 40.4256 86.9004 39.9504 86.9004 39.1512C86.9004 38.3649 86.4119 37.8518 85.506 37.8518H84.0367C83.9951 37.8518 83.9539 37.8601 83.9155 37.8764C83.877 37.8927 83.8421 37.9166 83.8127 37.9467C83.7833 37.9768 83.7599 38.0126 83.744 38.052C83.7281 38.0914 83.7199 38.1336 83.7199 38.1763V40.1011V40.1006ZM85.1162 41.9784H84.0367C83.9527 41.9784 83.8722 42.0126 83.8128 42.0734C83.7534 42.1342 83.72 42.2168 83.7199 42.3029V45.8712C83.7199 45.9139 83.7118 45.9562 83.6959 45.9956C83.68 46.0351 83.6567 46.0709 83.6272 46.1011C83.5978 46.1313 83.5629 46.1552 83.5244 46.1715C83.4859 46.1878 83.4447 46.1962 83.4031 46.1961H82.1481C82.1065 46.1961 82.0653 46.1877 82.0269 46.1714C81.9885 46.1551 81.9536 46.1311 81.9243 46.1009C81.8949 46.0708 81.8716 46.0349 81.8557 45.9955C81.8398 45.9561 81.8317 45.9138 81.8318 45.8712V36.5385C81.8318 36.3595 81.9731 36.2145 82.1481 36.2145H85.6328C87.6346 36.2145 88.731 37.5398 88.731 39.1709C88.731 40.2624 88.1844 41.1393 87.3426 41.6078C87.3055 41.6285 87.2728 41.6566 87.2466 41.6905C87.2203 41.7245 87.2009 41.7635 87.1897 41.8052C87.1784 41.847 87.1754 41.8906 87.181 41.9336C87.1865 41.9765 87.2004 42.0179 87.2219 42.0552L89.3285 45.7061C89.3569 45.7553 89.3721 45.8114 89.3725 45.8686C89.373 45.9258 89.3587 45.9821 89.3311 46.0318C89.3035 46.0815 89.2636 46.1228 89.2154 46.1516C89.1672 46.1804 89.1124 46.1956 89.0567 46.1957H87.7465C87.6898 46.1957 87.6341 46.1802 87.5853 46.1506C87.5365 46.1211 87.4963 46.0786 87.469 46.0277L85.3937 42.1469C85.3664 42.0959 85.3262 42.0533 85.2774 42.0237C85.2286 41.9941 85.1729 41.9784 85.1162 41.9784ZM99.9057 41.2051C99.9057 39.3269 98.4925 37.8782 96.662 37.8782C94.8375 37.8782 93.4183 39.3269 93.4183 41.2051C93.4183 43.0833 94.8375 44.5325 96.662 44.5325C98.4925 44.5325 99.9057 43.0833 99.9057 41.2051ZM91.5241 41.2051C91.5241 38.2867 93.7412 36.0845 96.662 36.0845C99.5819 36.0845 101.8 38.2867 101.8 41.2051C101.8 44.1235 99.5819 46.3262 96.662 46.3262C93.7412 46.3262 91.5241 44.123 91.5241 41.2051ZM108.223 44.4739C110.288 44.4739 111.289 43.3171 111.289 41.2051C111.289 39.0931 110.288 37.9368 108.223 37.9368H107.17C107.086 37.9368 107.006 37.971 106.946 38.0318C106.887 38.0927 106.854 38.1752 106.854 38.2613V44.1489C106.854 44.3285 106.995 44.4739 107.17 44.4739H108.223ZM104.972 36.5385C104.972 36.3595 105.114 36.2145 105.289 36.2145H108.304C111.536 36.2145 113.246 38.1825 113.246 41.2051C113.246 44.2272 111.536 46.1961 108.304 46.1961H105.289C105.247 46.1961 105.206 46.1877 105.168 46.1714C105.129 46.1551 105.094 46.1311 105.065 46.1009C105.036 46.0708 105.012 46.0349 104.996 45.9955C104.981 45.9561 104.972 45.9138 104.972 45.8712V36.5385ZM116.28 42.7387V36.539C116.28 36.359 116.421 36.2141 116.596 36.2141H117.851C118.026 36.2141 118.168 36.359 118.168 36.539V42.4397C118.168 44.0318 119.061 44.6107 120.234 44.6107C121.411 44.6107 122.304 44.0318 122.304 42.4397V36.539C122.304 36.359 122.447 36.2141 122.621 36.2141H123.883C124.058 36.2141 124.199 36.359 124.199 36.539V42.7387C124.199 45.1238 122.488 46.3257 120.234 46.3257C117.991 46.3257 116.28 45.1238 116.28 42.7387H116.28ZM127.175 41.2051C127.175 38.2867 129.386 36.0845 132.313 36.0845C133.628 36.0845 134.881 36.5856 135.784 37.4021C135.817 37.432 135.844 37.4689 135.863 37.5103C135.882 37.5517 135.892 37.5967 135.893 37.6423C135.894 37.688 135.886 37.7334 135.868 37.7755C135.851 37.8176 135.825 37.8556 135.793 37.8869L134.924 38.723C134.866 38.7785 134.791 38.8098 134.712 38.8107C134.633 38.8116 134.557 38.782 134.498 38.7278C133.924 38.1917 133.142 37.8782 132.313 37.8782C130.481 37.8782 129.069 39.3206 129.069 41.2051C129.069 43.0896 130.481 44.5325 132.312 44.5325C133.142 44.5325 133.924 44.2185 134.498 43.6824C134.557 43.628 134.633 43.5984 134.712 43.5992C134.791 43.6001 134.867 43.6315 134.924 43.6872L135.793 44.5238C135.825 44.5551 135.851 44.5931 135.868 44.6352C135.886 44.6773 135.894 44.7227 135.893 44.7684C135.892 44.814 135.882 44.859 135.863 44.9004C135.844 44.9418 135.817 44.9787 135.784 45.0086C134.881 45.8246 133.628 46.3262 132.312 46.3262C129.386 46.3262 127.175 44.123 127.175 41.2051ZM144.634 37.9363H142.764C142.723 37.9363 142.681 37.9447 142.643 37.961C142.605 37.9774 142.57 38.0013 142.54 38.0315C142.511 38.0617 142.488 38.0975 142.472 38.1369C142.456 38.1764 142.448 38.2186 142.448 38.2613V45.8717C142.448 45.9576 142.414 46.04 142.355 46.1008C142.296 46.1615 142.215 46.1957 142.132 46.1957H140.883C140.841 46.1957 140.8 46.1874 140.762 46.1711C140.723 46.1549 140.688 46.131 140.659 46.101C140.629 46.0709 140.606 46.0351 140.59 45.9958C140.574 45.9565 140.566 45.9143 140.566 45.8717V38.2613C140.566 38.2186 140.558 38.1764 140.542 38.137C140.526 38.0976 140.503 38.0617 140.474 38.0315C140.444 38.0013 140.409 37.9774 140.371 37.9611C140.333 37.9447 140.292 37.9363 140.25 37.9363H138.374C138.29 37.9362 138.209 37.9019 138.15 37.8411C138.091 37.7803 138.058 37.6978 138.058 37.6118V36.539C138.058 36.359 138.199 36.2141 138.374 36.2141H144.634C144.809 36.2141 144.95 36.359 144.95 36.539V37.6118C144.95 37.6979 144.917 37.7805 144.857 37.8413C144.798 37.9021 144.718 37.9363 144.634 37.9363ZM147.239 44.5037L147.924 43.6262C147.951 43.5911 147.985 43.5622 148.024 43.5414C148.062 43.5206 148.105 43.5084 148.149 43.5054C148.192 43.5025 148.236 43.5089 148.277 43.5244C148.318 43.5398 148.355 43.5639 148.387 43.595C149.041 44.2425 149.942 44.6817 150.734 44.6817C151.494 44.6817 152.045 44.2795 152.045 43.5705C152.045 42.6801 151.177 42.3485 150.068 41.8488C148.795 41.2766 147.452 40.6267 147.452 38.8651C147.452 37.0977 148.795 36.084 150.455 36.084C151.553 36.084 152.587 36.5049 153.435 37.2009C153.565 37.3075 153.584 37.5033 153.485 37.6411L152.872 38.4945C152.847 38.5297 152.815 38.5594 152.779 38.5816C152.742 38.6039 152.702 38.6183 152.66 38.6241C152.617 38.6298 152.575 38.6267 152.534 38.615C152.493 38.6033 152.455 38.5832 152.421 38.556C151.768 37.9997 151.029 37.7285 150.411 37.7285C149.796 37.7285 149.309 38.0472 149.309 38.6707C149.309 39.4829 150.144 39.8011 151.266 40.2955C152.546 40.8739 153.933 41.5886 153.933 43.4472C153.933 45.3576 152.464 46.3195 150.728 46.3195C149.475 46.3195 148.191 45.804 147.279 44.9525C147.218 44.897 147.179 44.8197 147.172 44.7363C147.164 44.6528 147.188 44.5696 147.239 44.5037Z" fill="white"/>
<mask id="mask1" masktype="alpha" maskUnits="userSpaceOnUse" x="0" y="0" width="17" height="48">
<path d="M0 0.313477H16.7221V47.6876H0V0.313477Z" fill="white"/>
</mask>
<g mask="url(#mask1)">
<path fill-rule="evenodd" clip-rule="evenodd" d="M16.5616 42.9116C16.7143 42.642 16.7607 42.3228 16.6911 42.0193C16.6216 41.7158 16.4415 41.4511 16.1877 41.2796C10.7002 37.5912 7.07329 31.2322 7.07329 23.9996C7.07329 16.7679 10.7002 10.4088 16.1877 6.72053C16.4414 6.54891 16.6214 6.28423 16.691 5.98078C16.7605 5.67732 16.7142 5.35809 16.5616 5.08852L14.2191 0.926924C14.1373 0.782401 14.0277 0.656427 13.897 0.556641C13.7664 0.456856 13.6173 0.385337 13.4588 0.346423C13.3004 0.307509 13.1359 0.30201 12.9753 0.33026C12.8148 0.358509 12.6615 0.419919 12.5247 0.510764C4.99332 5.473 0 14.136 0 24C0 33.864 4.99285 42.5266 12.5247 47.4893C12.6614 47.5801 12.8147 47.6415 12.9753 47.6698C13.1358 47.698 13.3003 47.6925 13.4587 47.6537C13.6171 47.6148 13.7662 47.5434 13.8969 47.4437C14.0276 47.344 14.1372 47.2181 14.2191 47.0737L16.5616 42.9116Z" fill="white"/>
</g>
<path fill-rule="evenodd" clip-rule="evenodd" d="M40.1913 0.926567L37.8493 5.08913C37.6968 5.35851 37.6506 5.67753 37.72 5.98078C37.7894 6.28404 37.9693 6.54857 38.2227 6.72017C43.7102 10.4085 47.3367 16.768 47.3367 24.0002C47.3367 31.2323 43.7102 37.5914 38.2227 41.2802C37.9693 41.4518 37.7894 41.7163 37.72 42.0196C37.6506 42.3228 37.6968 42.6418 37.8493 42.9112L40.1913 47.0733C40.2732 47.2178 40.3828 47.3437 40.5135 47.4434C40.6441 47.5432 40.7932 47.6147 40.9516 47.6536C41.1101 47.6925 41.2745 47.698 41.4351 47.6698C41.5956 47.6416 41.749 47.5802 41.8857 47.4894C49.418 42.5267 54.41 33.8642 54.41 24.0002C54.41 14.1362 49.4171 5.47361 41.8857 0.510407C41.749 0.41966 41.5957 0.358342 41.4351 0.33017C41.2746 0.301999 41.1101 0.307559 40.9517 0.346516C40.7934 0.385473 40.6443 0.457014 40.5137 0.556803C40.3831 0.656593 40.2736 0.782552 40.1918 0.927047" fill="white"/>
</svg>
